<svg width="7909" height="3624" viewBox="0 0 7909 3624" fill="none" xmlns="http://www.w3.org/2000/svg">
<path fill-rule="evenodd" clip-rule="evenodd" d="M4521.01 1327.88C4431.46 1289.79 4327.94 1278.34 4211.73 1304.85C3852.25 1386.88 3706.83 1606.41 3687.2 1866.63C3658.54 2246.61 3902.13 2714.22 4119.86 2946.63C4130.16 2957.65 4149.96 2960.01 4164 2951.98C4178.13 2943.95 4181.24 2928.52 4170.94 2917.5C3959.6 2691.94 3722.55 2238.27 3750.33 1869.5C3768.37 1630.56 3899.34 1427.53 4229.53 1352.22C4327.78 1329.75 4415.1 1339.64 4490.92 1371.7C4464.82 1410.66 4440.48 1449.69 4417.97 1488.71C4355.87 1596.45 4263.05 1895.58 4297.69 2115.53C4322.59 2273.31 4412.86 2390.26 4610.16 2386.16C4719.82 2383.85 4799.16 2330.57 4847.68 2245.8C4914.49 2129.29 4921.99 1950.78 4874.98 1779.75C4835.87 1637.34 4759.25 1500.35 4650.55 1408.42C4626.6 1388.25 4601.22 1370.14 4574.32 1354.58C4949.45 819.563 5646.3 319.275 6361.91 108.28C6378.19 103.426 6386.49 89.2356 6380.27 76.4764C6374.12 63.7171 6355.84 57.306 6339.56 62.0985C5612.3 276.579 4903.88 784.15 4521.01 1327.88ZM4544.07 1398.84C4519.65 1435.49 4496.82 1472.22 4475.67 1508.94C4416.21 1612.19 4327.3 1898.75 4360.5 2109.5C4380.85 2238.83 4446.78 2340.22 4608.49 2336.86C4693.41 2335.05 4752.31 2291.3 4789.98 2225.7C4831.32 2153.5 4847.13 2055.72 4840.5 1951.47C4830.45 1793.19 4768.43 1620.04 4660.52 1497.49C4626.36 1458.65 4587.49 1424.98 4544.07 1398.84Z" fill="white"/>
<path fill-rule="evenodd" clip-rule="evenodd" d="M6146.51 511.754C6171.44 361.919 6266.6 202.373 6369.16 91.8938C6373.88 86.8135 6373.69 78.7427 6368.76 73.8875C6363.82 69.0324 6355.98 69.1935 6351.26 74.2738C6245.48 188.193 6147.82 352.98 6122.11 507.445C6120.95 514.358 6125.49 520.95 6132.23 522.139C6138.95 523.329 6145.35 518.667 6146.51 511.754Z" fill="white"/>
<path fill-rule="evenodd" clip-rule="evenodd" d="M6347.34 61.7547C6232.54 108.28 6069.23 92.9891 5955.74 44.1214C5949.45 41.4062 5942.14 44.458 5939.48 50.9557C5936.79 57.4489 5939.7 64.8977 5945.99 67.6128C6064.89 118.805 6235.99 134.171 6356.26 85.4302C6362.63 82.8601 6365.81 75.4306 6363.37 68.8948C6360.89 62.3545 6353.72 59.1528 6347.34 61.7547Z" fill="white"/>
<path d="M6.43701 3349.67C6.43701 3343.03 7.31592 3335.8 9.07373 3327.99C11.0269 3320.18 13.6636 3312.36 16.9839 3304.55C20.3042 3296.54 24.3081 3288.83 28.9956 3281.41C33.6831 3273.79 38.9565 3267.15 44.8159 3261.48C50.6753 3255.62 57.0229 3251.04 63.8589 3247.71C70.6948 3244.2 77.9214 3242.44 85.5386 3242.44C91.7886 3242.44 97.6479 3243.32 103.117 3245.08C108.585 3246.64 113.273 3249.08 117.179 3252.4C121.085 3255.72 124.113 3259.92 126.261 3265C128.605 3269.88 129.777 3275.74 129.777 3282.58C125.48 3282.58 121.964 3281.5 119.23 3279.36C116.691 3277.01 114.25 3274.47 111.906 3271.74C109.757 3269 107.316 3266.56 104.582 3264.41C102.042 3262.27 98.7222 3261.19 94.6206 3261.19C88.5659 3261.19 82.7065 3262.75 77.0425 3265.88C71.5737 3269 66.3979 3273.2 61.5151 3278.48C56.8276 3283.75 52.6284 3289.71 48.9175 3296.35C45.4019 3302.99 42.2769 3309.73 39.5425 3316.56C37.0034 3323.2 34.9526 3329.75 33.3901 3336.19C32.0229 3342.64 31.3394 3348.2 31.3394 3352.89C31.3394 3363.05 32.8042 3372.62 35.7339 3381.6C38.8589 3390.39 43.2534 3398.11 48.9175 3404.75C54.5815 3411.19 61.6128 3416.27 70.0112 3419.98C78.4097 3423.69 87.98 3425.55 98.7222 3425.55C105.558 3425.55 112.003 3424.57 118.058 3422.62C124.308 3420.47 130.265 3418.22 135.929 3415.88C141.789 3413.34 147.55 3411 153.214 3408.85C158.878 3406.7 164.542 3405.62 170.207 3405.62C170.988 3405.62 172.062 3405.72 173.429 3405.92C174.992 3405.92 176.359 3406.11 177.531 3406.5C178.898 3406.89 180.07 3407.58 181.046 3408.55C182.023 3409.34 182.511 3410.61 182.511 3412.36C182.511 3419.39 179.777 3425.35 174.308 3430.23C169.035 3435.12 162.687 3439.12 155.265 3442.25C147.843 3445.18 140.128 3447.32 132.121 3448.69C124.113 3450.06 117.57 3450.74 112.492 3450.74C97.6479 3450.74 83.7808 3448.4 70.8901 3443.71C57.9995 3438.83 46.769 3431.99 37.1987 3423.2C27.6284 3414.41 20.1089 3403.87 14.6401 3391.56C9.17139 3379.06 6.43701 3365.1 6.43701 3349.67ZM201.847 3284.34C201.847 3278.67 201.457 3273.2 200.675 3267.93C199.894 3262.46 199.699 3257.68 200.089 3253.57C200.48 3249.28 201.945 3245.86 204.484 3243.32C207.218 3240.78 212.101 3239.51 219.132 3239.51C221.281 3244 223.332 3250.84 225.285 3260.02C227.433 3269.2 229.484 3279.75 231.437 3291.66C233.39 3303.57 235.246 3316.56 237.003 3330.62C238.761 3344.49 240.324 3358.46 241.691 3372.52C243.253 3386.58 244.523 3400.45 245.499 3414.12C246.671 3427.6 247.55 3439.9 248.136 3451.04C241.691 3455.33 236.515 3455.62 232.609 3451.91C228.703 3448.2 225.48 3441.95 222.941 3433.16C220.402 3424.18 218.449 3413.34 217.082 3400.64C215.714 3387.75 214.347 3374.47 212.98 3360.8C211.808 3346.93 210.343 3333.36 208.585 3320.08C206.828 3306.6 204.582 3294.69 201.847 3284.34ZM275.675 3340.29C275.675 3339.12 275.675 3337.27 275.675 3334.73C275.871 3331.99 275.968 3329.16 275.968 3326.23C276.164 3323.3 276.261 3320.47 276.261 3317.73C276.457 3315 276.554 3313.05 276.554 3311.87C278.703 3308.75 281.437 3306.21 284.757 3304.26C288.273 3302.3 291.789 3300.74 295.304 3299.57C295.89 3310.12 297.55 3321.35 300.285 3333.26C303.019 3345.18 305.949 3357.19 309.074 3369.3C312.199 3381.21 314.933 3393.03 317.277 3404.75C319.816 3416.46 321.085 3427.4 321.085 3437.56C321.085 3446.35 316.593 3450.74 307.609 3450.74C302.14 3450.74 297.55 3448.5 293.839 3444C290.128 3439.51 287.101 3433.85 284.757 3427.01C282.609 3419.98 280.851 3412.27 279.484 3403.87C278.117 3395.27 277.14 3386.87 276.554 3378.67C276.164 3370.47 275.871 3362.95 275.675 3356.11C275.675 3349.28 275.675 3344 275.675 3340.29ZM279.777 3230.43C283.488 3231.99 286.613 3234.53 289.152 3238.05C291.691 3241.56 292.765 3244.79 292.374 3247.71C292.179 3250.45 290.031 3252.4 285.929 3253.57C281.828 3254.55 274.992 3253.38 265.421 3250.06C265.421 3244.79 266.398 3240.2 268.351 3236.29C270.499 3232.38 274.308 3230.43 279.777 3230.43ZM326.652 3361.97C326.652 3353.77 328.41 3345.18 331.925 3336.19C335.636 3327.21 340.519 3319.1 346.574 3311.87C352.628 3304.45 359.562 3298.3 367.374 3293.42C375.382 3288.54 383.781 3286.09 392.57 3286.09C397.062 3286.09 401.554 3286.87 406.046 3288.44C410.539 3290 414.542 3292.25 418.058 3295.18C421.769 3298.11 424.699 3301.62 426.847 3305.72C429.191 3309.82 430.363 3314.41 430.363 3319.49C426.847 3319.49 423.624 3319.1 420.695 3318.32C417.96 3317.54 415.226 3316.66 412.492 3315.68C409.757 3314.51 407.023 3313.54 404.289 3312.75C401.749 3311.97 398.917 3311.58 395.792 3311.58C387.785 3311.58 381.242 3313.63 376.164 3317.73C371.281 3321.64 367.374 3326.62 364.445 3332.68C361.515 3338.73 359.464 3345.27 358.292 3352.3C357.316 3359.14 356.828 3365.59 356.828 3371.64C356.828 3372.62 356.828 3374.47 356.828 3377.21C357.023 3379.94 357.121 3382.87 357.121 3386C357.316 3388.93 357.414 3391.76 357.414 3394.49C357.609 3397.23 357.804 3399.08 357.999 3400.06C360.148 3404.75 362.199 3408.36 364.152 3410.9C366.3 3413.44 368.546 3415.39 370.89 3416.76C373.234 3417.93 375.773 3418.71 378.507 3419.1C381.242 3419.3 384.464 3419.39 388.175 3419.39C393.253 3419.39 397.648 3418.61 401.359 3417.05C405.265 3415.49 408.878 3413.63 412.199 3411.48C415.519 3409.34 418.644 3406.99 421.574 3404.45C424.503 3401.72 427.531 3399.28 430.656 3397.13C433.976 3394.79 437.492 3392.93 441.203 3391.56C445.109 3390 449.503 3389.22 454.386 3389.22C454.386 3398.79 452.628 3407.29 449.113 3414.71C445.792 3422.13 441.007 3428.48 434.757 3433.75C428.703 3439.02 421.476 3443.12 413.078 3446.05C404.874 3448.79 395.89 3450.16 386.124 3450.16C376.945 3450.16 368.644 3447.03 361.222 3440.78C353.996 3434.53 347.746 3426.91 342.472 3417.93C337.394 3408.75 333.488 3399.08 330.753 3388.93C328.019 3378.77 326.652 3369.79 326.652 3361.97ZM527.628 3444.3C524.503 3447.03 521.183 3445.76 517.667 3440.49C514.347 3435.21 510.929 3427.3 507.414 3416.76C503.898 3406.02 500.382 3393.22 496.867 3378.38C493.546 3363.54 490.324 3347.81 487.199 3331.21C484.074 3314.61 481.046 3297.81 478.117 3280.82C475.382 3263.63 472.941 3247.52 470.792 3232.48C470.792 3229.75 470.695 3227.01 470.499 3224.28C470.499 3221.35 470.792 3218.71 471.378 3216.37C472.16 3213.83 473.429 3211.58 475.187 3209.63C477.14 3207.68 480.07 3206.21 483.976 3205.23C484.367 3205.04 485.148 3205.23 486.32 3205.82C487.687 3206.21 489.054 3206.8 490.421 3207.58C491.789 3208.16 492.96 3208.85 493.937 3209.63C495.109 3210.41 495.89 3211.09 496.281 3211.68C493.742 3248.2 497.941 3283.75 508.878 3318.32C509.464 3317.73 511.027 3315.78 513.566 3312.46C516.105 3308.95 519.328 3304.94 523.234 3300.45C527.14 3295.76 531.535 3290.78 536.417 3285.51C541.496 3280.23 546.769 3275.35 552.238 3270.86C557.707 3266.37 563.175 3262.66 568.644 3259.73C574.113 3256.6 579.386 3255.04 584.464 3255.04C587.394 3255.04 590.226 3255.72 592.96 3257.09C595.89 3258.46 597.355 3261.09 597.355 3265C597.355 3265.39 597.257 3265.98 597.062 3266.76C596.867 3267.34 596.769 3267.83 596.769 3268.22C593.644 3270.96 588.859 3275.16 582.414 3280.82C576.164 3286.48 569.523 3292.83 562.492 3299.86C555.46 3306.89 548.722 3314.22 542.277 3321.84C535.832 3329.45 530.949 3336.68 527.628 3343.52C527.042 3344.69 526.847 3345.76 527.042 3346.74C527.238 3347.52 527.433 3348.5 527.628 3349.67C529.777 3350.45 533.195 3351.62 537.882 3353.18C542.57 3354.75 547.746 3356.6 553.41 3358.75C559.074 3360.7 565.128 3362.85 571.574 3365.2C578.019 3367.34 584.074 3369.49 589.738 3371.64C595.402 3373.79 600.48 3375.74 604.972 3377.5C609.66 3379.06 613.175 3380.23 615.519 3381.02C618.253 3382.19 620.499 3382.97 622.257 3383.36C624.015 3383.75 625.382 3384.34 626.359 3385.12C627.335 3385.7 628.019 3386.58 628.41 3387.75C628.8 3388.93 628.996 3390.68 628.996 3393.03C628.996 3398.69 627.628 3402.4 624.894 3404.16C622.16 3405.92 618.253 3406.8 613.175 3406.8C598.136 3405.82 583.39 3402.7 568.937 3397.42C554.484 3391.95 539.835 3385.41 524.992 3377.79C524.406 3381.5 524.601 3385.8 525.578 3390.68C526.749 3395.57 528.117 3400.45 529.679 3405.33C531.242 3410.21 532.707 3415 534.074 3419.69C535.636 3424.37 536.515 3428.57 536.71 3432.29C537.101 3436 536.71 3438.93 535.539 3441.07C534.367 3443.22 531.73 3444.3 527.628 3444.3ZM646.574 3427.01C646.964 3425.64 647.55 3423.2 648.332 3419.69C649.308 3416.17 650.187 3412.46 650.968 3408.55C651.945 3404.45 652.824 3400.74 653.605 3397.42C654.386 3393.91 654.972 3391.46 655.363 3390.1C656.73 3384.63 658.781 3377.11 661.515 3367.54C664.249 3357.77 667.57 3347.42 671.476 3336.48C675.578 3325.35 680.167 3314.22 685.246 3303.09C690.519 3291.76 696.281 3281.89 702.531 3273.5C708.976 3264.9 715.91 3258.36 723.331 3253.87C730.753 3249.37 738.761 3248.3 747.355 3250.64C744.621 3261.58 741.105 3271.93 736.808 3281.7C732.706 3291.27 728.214 3300.74 723.331 3310.12C718.644 3319.3 713.761 3328.48 708.683 3337.66C703.8 3346.64 699.015 3355.82 694.328 3365.2C689.64 3374.57 685.343 3384.34 681.437 3394.49C677.726 3404.65 674.796 3415.49 672.648 3427.01C671.671 3432.68 669.816 3436 667.082 3436.97C664.347 3437.75 661.222 3437.66 657.707 3436.68C655.167 3436.09 652.824 3435.21 650.675 3434.04C648.527 3432.87 647.16 3430.53 646.574 3427.01ZM754.679 3218.71C754.679 3212.66 755.753 3207.68 757.902 3203.77C760.246 3199.86 763.371 3196.74 767.277 3194.39C771.183 3191.86 775.48 3190 780.167 3188.83C785.05 3187.66 790.031 3186.87 795.109 3186.48C800.382 3185.9 805.46 3185.7 810.343 3185.9C815.226 3185.9 819.718 3185.9 823.82 3185.9C831.828 3185.9 839.835 3186.68 847.843 3188.24C855.851 3189.8 862.882 3192.54 868.937 3196.45C875.187 3200.35 880.265 3205.62 884.171 3212.27C888.078 3218.71 890.031 3226.82 890.031 3236.58C890.031 3245.18 888.273 3253.77 884.757 3262.36C881.437 3270.76 877.042 3278.87 871.574 3286.68C866.3 3294.3 860.246 3301.33 853.41 3307.77C846.574 3314.02 839.738 3319.39 832.902 3323.89C826.261 3328.38 819.816 3331.89 813.566 3334.43C807.511 3336.97 802.433 3337.95 798.331 3337.36C795.988 3344.98 794.523 3353.18 793.937 3361.97C793.546 3370.57 793.449 3379.06 793.644 3387.46C793.839 3395.66 794.132 3403.57 794.523 3411.19C794.914 3418.61 794.523 3425.06 793.351 3430.53C792.374 3435.8 790.421 3439.8 787.492 3442.54C784.562 3445.08 780.07 3445.86 774.015 3444.88C772.257 3431.02 770.89 3416.95 769.914 3402.7C769.132 3388.44 768.449 3374.28 767.863 3360.21C767.277 3346.15 766.691 3332.48 766.105 3319.2C765.714 3305.72 765.031 3292.93 764.054 3280.82C763.273 3268.71 762.101 3257.38 760.539 3246.84C758.976 3236.29 757.023 3226.91 754.679 3218.71ZM827.042 3211.09C824.113 3211.09 820.499 3211.19 816.203 3211.39C811.906 3211.58 807.706 3212.27 803.605 3213.44C799.699 3214.41 796.378 3216.27 793.644 3219C790.91 3221.54 789.542 3225.25 789.542 3230.14V3306.89C797.55 3306.89 806.046 3304.75 815.031 3300.45C824.015 3296.15 832.218 3290.68 839.64 3284.04C847.062 3277.4 853.214 3269.88 858.097 3261.48C862.98 3253.09 865.421 3244.79 865.421 3236.58C865.421 3230.53 864.249 3225.84 861.906 3222.52C859.757 3219.2 856.828 3216.66 853.117 3214.9C849.601 3213.14 845.597 3212.07 841.105 3211.68C836.613 3211.29 831.925 3211.09 827.042 3211.09ZM902.042 3327.11C902.042 3325.35 902.14 3323.59 902.335 3321.84C902.531 3319.88 902.921 3318.22 903.507 3316.86C904.093 3315.29 904.972 3314.02 906.144 3313.05C907.511 3312.07 909.367 3311.58 911.71 3311.58C913.664 3311.58 915.812 3313.14 918.156 3316.27C920.695 3319.2 923.234 3323.01 925.773 3327.7C928.312 3332.19 930.753 3337.17 933.097 3342.64C935.636 3348.11 937.785 3353.18 939.542 3357.87C941.496 3362.36 943.058 3366.27 944.23 3369.59C945.402 3372.91 946.085 3374.67 946.281 3374.86C948.82 3368.03 951.652 3360.61 954.777 3352.6C957.902 3344.59 961.71 3337.17 966.203 3330.33C970.89 3323.3 976.359 3317.44 982.609 3312.75C989.054 3308.07 996.867 3305.72 1006.05 3305.72C1010.73 3305.72 1015.13 3306.5 1019.23 3308.07C1023.53 3309.43 1027.24 3311.58 1030.36 3314.51C1033.68 3317.25 1036.32 3320.57 1038.27 3324.47C1040.23 3328.38 1041.2 3332.87 1041.2 3337.95C1041.2 3342.25 1039.44 3345.27 1035.93 3347.03C1032.61 3348.79 1028.8 3349.67 1024.5 3349.67H1021.57L1008.98 3337.07C1008.59 3337.07 1008.29 3336.97 1008.1 3336.78C1007.71 3336.78 1007.32 3336.78 1006.93 3336.78C1006.73 3336.58 1006.44 3336.48 1006.05 3336.48C999.21 3336.48 993.839 3338.44 989.933 3342.34C986.222 3346.05 983.39 3350.74 981.437 3356.41C979.484 3361.87 978.214 3367.73 977.628 3373.98C977.238 3380.04 977.042 3385.61 977.042 3390.68C977.042 3394.59 977.433 3398.59 978.214 3402.7C978.996 3406.6 979.874 3410.51 980.851 3414.41C981.828 3418.12 982.706 3422.03 983.488 3426.13C984.269 3430.04 984.66 3434.14 984.66 3438.44C984.66 3446.64 980.265 3450.74 971.476 3450.74C966.593 3450.74 961.515 3448.2 956.242 3443.12C950.968 3437.85 945.695 3431.21 940.421 3423.2C935.343 3415.2 930.46 3406.41 925.773 3396.84C921.085 3387.07 916.984 3377.6 913.468 3368.42C909.953 3359.24 907.121 3350.94 904.972 3343.52C903.019 3336.09 902.042 3330.62 902.042 3327.11ZM1051.75 3368.71C1051.75 3358.16 1053.02 3347.62 1055.56 3337.07C1058.1 3326.52 1062.1 3317.05 1067.57 3308.65C1073.23 3300.25 1080.46 3293.42 1089.25 3288.14C1098.23 3282.87 1109.07 3280.23 1121.77 3280.23C1129 3280.23 1135.34 3281.6 1140.81 3284.34C1146.28 3286.87 1150.87 3290.29 1154.58 3294.59C1158.29 3298.89 1161.03 3303.96 1162.78 3309.82C1164.74 3315.49 1165.71 3321.45 1165.71 3327.7C1165.71 3337.66 1163.37 3347.32 1158.68 3356.7C1154.19 3366.07 1148.04 3374.37 1140.23 3381.6C1132.61 3388.63 1123.82 3394 1113.86 3397.71C1103.9 3401.23 1093.74 3402.01 1083.39 3400.06C1083.59 3405.72 1085.44 3410.31 1088.96 3413.83C1092.67 3417.15 1097.06 3419.69 1102.14 3421.45C1107.22 3423.2 1112.49 3424.37 1117.96 3424.96C1123.43 3425.35 1128.31 3425.55 1132.61 3425.55C1137.1 3425.55 1141.3 3425.16 1145.21 3424.37C1149.11 3423.59 1153.02 3422.71 1156.93 3421.74C1160.83 3420.76 1164.74 3419.88 1168.64 3419.1C1172.75 3418.32 1177.04 3417.93 1181.53 3417.93C1183.29 3417.93 1185.05 3418.03 1186.81 3418.22C1188.57 3418.42 1190.23 3418.91 1191.79 3419.69C1193.35 3420.27 1194.62 3421.35 1195.6 3422.91C1196.57 3424.28 1197.06 3426.04 1197.06 3428.18C1197.06 3431.89 1195.69 3435.02 1192.96 3437.56C1190.23 3439.9 1186.71 3441.95 1182.41 3443.71C1178.31 3445.47 1173.72 3446.84 1168.64 3447.81C1163.57 3448.59 1158.59 3449.28 1153.7 3449.86C1149.02 3450.25 1144.62 3450.45 1140.52 3450.45C1136.61 3450.64 1133.68 3450.74 1131.73 3450.74C1119.23 3450.74 1108 3448.79 1098.04 3444.88C1088.08 3440.78 1079.68 3435.21 1072.84 3428.18C1066.01 3420.96 1060.73 3412.36 1057.02 3402.4C1053.51 3392.25 1051.75 3381.02 1051.75 3368.71ZM1082.8 3349.67C1082.8 3356.5 1083.68 3361.48 1085.44 3364.61C1087.39 3367.73 1091.98 3369.3 1099.21 3369.3C1104.29 3369.3 1109.27 3368.42 1114.15 3366.66C1119.03 3364.71 1123.43 3362.07 1127.34 3358.75C1131.44 3355.43 1134.66 3351.52 1137 3347.03C1139.35 3342.54 1140.52 3337.66 1140.52 3332.38C1140.52 3329.45 1140.23 3326.43 1139.64 3323.3C1139.25 3320.18 1138.27 3317.34 1136.71 3314.8C1135.15 3312.07 1133.1 3309.92 1130.56 3308.36C1128.21 3306.6 1125.09 3305.72 1121.18 3305.72C1115.32 3305.72 1109.95 3307.09 1105.07 3309.82C1100.38 3312.36 1096.38 3315.78 1093.06 3320.08C1089.74 3324.18 1087.2 3328.87 1085.44 3334.14C1083.68 3339.22 1082.8 3344.39 1082.8 3349.67ZM1271.48 3436.97C1274.6 3434.82 1278.31 3432.09 1282.61 3428.77C1287.1 3425.25 1291.59 3421.54 1296.09 3417.64C1300.58 3413.73 1304.78 3409.63 1308.68 3405.33C1312.59 3401.04 1315.62 3396.93 1317.77 3393.03C1320.11 3388.93 1321.28 3385.12 1321.28 3381.6C1321.28 3378.09 1319.52 3375.16 1316.01 3372.81C1309.76 3372.81 1302.92 3373.11 1295.5 3373.69C1288.08 3374.08 1280.66 3374.28 1273.23 3374.28C1265.81 3374.08 1258.59 3373.4 1251.55 3372.23C1244.72 3371.05 1238.57 3368.91 1233.1 3365.78C1227.63 3362.66 1223.23 3358.26 1219.91 3352.6C1216.79 3346.74 1215.23 3339.32 1215.23 3330.33C1215.23 3319.79 1217.18 3310.31 1221.09 3301.91C1225.19 3293.32 1230.56 3285.8 1237.2 3279.36C1243.84 3272.71 1251.26 3266.95 1259.46 3262.07C1267.86 3256.99 1276.26 3252.7 1284.66 3249.18C1289.74 3250.55 1294.43 3252.99 1298.72 3256.5C1303.02 3260.02 1306.73 3263.93 1309.85 3268.22C1308.49 3272.52 1305.75 3275.84 1301.65 3278.18C1297.75 3280.53 1293.16 3282.58 1287.88 3284.34C1282.8 3286.09 1277.43 3287.95 1271.77 3289.9C1266.1 3291.86 1260.93 3294.49 1256.24 3297.81C1251.75 3300.94 1247.94 3305.14 1244.82 3310.41C1241.69 3315.49 1240.13 3322.23 1240.13 3330.62C1240.13 3336.87 1241.69 3341.46 1244.82 3344.39C1247.94 3347.32 1252.04 3349.37 1257.12 3350.55C1262.2 3351.52 1267.96 3351.91 1274.41 3351.72C1280.85 3351.33 1287.39 3350.84 1294.03 3350.25C1300.87 3349.67 1307.51 3349.37 1313.96 3349.37C1320.4 3349.18 1326.16 3349.96 1331.24 3351.72C1336.32 3353.28 1340.32 3355.92 1343.25 3359.63C1346.38 3363.34 1347.94 3368.81 1347.94 3376.04C1347.94 3379.16 1346.87 3383.16 1344.72 3388.05C1342.77 3392.93 1340.03 3398.2 1336.52 3403.87C1333.19 3409.34 1329.19 3414.8 1324.5 3420.27C1320.01 3425.74 1315.23 3430.72 1310.15 3435.21C1305.27 3439.51 1300.28 3443.12 1295.21 3446.05C1290.32 3448.79 1285.73 3450.16 1281.44 3450.16C1277.34 3450.16 1274.6 3448.69 1273.23 3445.76C1272.06 3442.83 1271.48 3439.9 1271.48 3436.97ZM1415.91 3436.97C1419.03 3434.82 1422.75 3432.09 1427.04 3428.77C1431.53 3425.25 1436.03 3421.54 1440.52 3417.64C1445.01 3413.73 1449.21 3409.63 1453.12 3405.33C1457.02 3401.04 1460.05 3396.93 1462.2 3393.03C1464.54 3388.93 1465.71 3385.12 1465.71 3381.6C1465.71 3378.09 1463.96 3375.16 1460.44 3372.81C1454.19 3372.81 1447.35 3373.11 1439.93 3373.69C1432.51 3374.08 1425.09 3374.28 1417.67 3374.28C1410.25 3374.08 1403.02 3373.4 1395.99 3372.23C1389.15 3371.05 1383 3368.91 1377.53 3365.78C1372.06 3362.66 1367.67 3358.26 1364.35 3352.6C1361.22 3346.74 1359.66 3339.32 1359.66 3330.33C1359.66 3319.79 1361.61 3310.31 1365.52 3301.91C1369.62 3293.32 1374.99 3285.8 1381.63 3279.36C1388.27 3272.71 1395.69 3266.95 1403.9 3262.07C1412.3 3256.99 1420.69 3252.7 1429.09 3249.18C1434.17 3250.55 1438.86 3252.99 1443.16 3256.5C1447.45 3260.02 1451.16 3263.93 1454.29 3268.22C1452.92 3272.52 1450.19 3275.84 1446.09 3278.18C1442.18 3280.53 1437.59 3282.58 1432.32 3284.34C1427.24 3286.09 1421.87 3287.95 1416.2 3289.9C1410.54 3291.86 1405.36 3294.49 1400.68 3297.81C1396.18 3300.94 1392.37 3305.14 1389.25 3310.41C1386.12 3315.49 1384.56 3322.23 1384.56 3330.62C1384.56 3336.87 1386.12 3341.46 1389.25 3344.39C1392.37 3347.32 1396.48 3349.37 1401.55 3350.55C1406.63 3351.52 1412.39 3351.91 1418.84 3351.72C1425.28 3351.33 1431.83 3350.84 1438.47 3350.25C1445.3 3349.67 1451.94 3349.37 1458.39 3349.37C1464.84 3349.18 1470.6 3349.96 1475.68 3351.72C1480.75 3353.28 1484.76 3355.92 1487.69 3359.63C1490.81 3363.34 1492.37 3368.81 1492.37 3376.04C1492.37 3379.16 1491.3 3383.16 1489.15 3388.05C1487.2 3392.93 1484.46 3398.2 1480.95 3403.87C1477.63 3409.34 1473.62 3414.8 1468.94 3420.27C1464.44 3425.74 1459.66 3430.72 1454.58 3435.21C1449.7 3439.51 1444.72 3443.12 1439.64 3446.05C1434.76 3448.79 1430.17 3450.16 1425.87 3450.16C1421.77 3450.16 1419.03 3448.69 1417.67 3445.76C1416.5 3442.83 1415.91 3439.9 1415.91 3436.97ZM1639.15 3390.68C1639.15 3378.57 1641.98 3367.34 1647.65 3356.99C1653.31 3346.45 1660.73 3337.46 1669.91 3330.04C1679.29 3322.42 1689.74 3316.46 1701.26 3312.17C1712.98 3307.87 1724.8 3305.72 1736.71 3305.72C1743.35 3305.72 1749.21 3307.87 1754.29 3312.17C1759.56 3316.46 1763.96 3321.74 1767.47 3327.99C1770.99 3334.04 1773.62 3340.49 1775.38 3347.32C1777.34 3354.16 1778.31 3360.12 1778.31 3365.2C1778.31 3376.13 1775.68 3386.78 1770.4 3397.13C1765.13 3407.29 1758.29 3416.37 1749.89 3424.37C1741.5 3432.19 1732.02 3438.54 1721.48 3443.42C1710.93 3448.3 1700.38 3450.74 1689.84 3450.74C1680.46 3450.74 1672.55 3449.18 1666.1 3446.05C1659.66 3442.73 1654.48 3438.44 1650.58 3433.16C1646.67 3427.7 1643.74 3421.35 1641.79 3414.12C1640.03 3406.7 1639.15 3398.89 1639.15 3390.68ZM1664.05 3393.61C1664.05 3398.69 1664.44 3403.18 1665.23 3407.09C1666.2 3410.8 1667.77 3414.02 1669.91 3416.76C1672.26 3419.49 1675.28 3421.64 1679 3423.2C1682.71 3424.57 1687.3 3425.25 1692.77 3425.25C1699.99 3425.25 1707.22 3423.3 1714.44 3419.39C1721.67 3415.29 1728.12 3410.21 1733.78 3404.16C1739.64 3397.91 1744.33 3391.07 1747.84 3383.65C1751.36 3376.23 1753.12 3369 1753.12 3361.97C1753.12 3358.85 1752.82 3355.43 1752.24 3351.72C1751.65 3348.01 1750.68 3344.59 1749.31 3341.46C1747.94 3338.34 1745.99 3335.7 1743.45 3333.55C1740.91 3331.41 1737.69 3330.33 1733.78 3330.33C1730.27 3330.33 1726.07 3331.5 1721.18 3333.85C1716.5 3336.19 1711.52 3339.22 1706.24 3342.93C1701.16 3346.64 1696.09 3350.84 1691.01 3355.53C1686.12 3360.21 1681.63 3364.9 1677.53 3369.59C1673.43 3374.28 1670.11 3378.77 1667.57 3383.07C1665.23 3387.36 1664.05 3390.88 1664.05 3393.61ZM1789.74 3351.43C1789.74 3346.35 1791.01 3342.73 1793.55 3340.59C1796.09 3338.24 1800.19 3337.07 1805.85 3337.07H1808.78C1809.37 3340.2 1810.05 3343.81 1810.83 3347.91C1811.61 3352.01 1812.78 3356.21 1814.35 3360.51C1815.91 3364.8 1817.77 3368.81 1819.91 3372.52C1822.06 3376.04 1824.7 3378.87 1827.82 3381.02C1828.02 3374.18 1829.68 3367.64 1832.8 3361.39C1836.12 3354.94 1840.13 3349.28 1844.82 3344.39C1849.7 3339.32 1854.97 3335.12 1860.64 3331.8C1866.5 3328.28 1872.26 3325.94 1877.92 3324.77H1884.37C1893.74 3324.77 1901.75 3326.91 1908.39 3331.21C1915.03 3335.31 1920.5 3340.78 1924.8 3347.62C1929.29 3354.26 1932.71 3361.87 1935.05 3370.47C1937.39 3379.06 1939.15 3387.85 1940.32 3396.84C1941.69 3405.62 1942.47 3414.22 1942.67 3422.62C1943.06 3430.82 1943.25 3437.85 1943.25 3443.71H1921.87C1920.69 3431.99 1919.23 3420.76 1917.47 3410.02C1916.89 3405.72 1916.1 3401.23 1915.13 3396.54C1914.15 3391.66 1913.08 3387.17 1911.91 3383.07C1910.73 3378.77 1909.46 3374.86 1908.1 3371.35C1906.73 3367.64 1905.17 3364.51 1903.41 3361.97C1902.63 3361.19 1901.55 3360.12 1900.19 3358.75C1899.02 3357.38 1897.75 3356.02 1896.38 3354.65C1895.01 3353.28 1893.74 3352.11 1892.57 3351.13C1891.4 3350.16 1890.71 3349.67 1890.52 3349.67C1884.66 3348.11 1879.58 3349.28 1875.28 3353.18C1870.99 3356.89 1867.18 3361.97 1863.86 3368.42C1860.54 3374.86 1857.8 3382.19 1855.66 3390.39C1853.7 3398.59 1852.04 3406.5 1850.68 3414.12C1849.31 3421.54 1848.33 3428.09 1847.75 3433.75C1847.16 3439.22 1846.77 3442.54 1846.57 3443.71C1841.69 3447.23 1837.1 3448.3 1832.8 3446.93C1828.51 3445.37 1824.41 3442.25 1820.5 3437.56C1816.79 3432.87 1813.37 3427.01 1810.25 3419.98C1807.32 3412.95 1804.58 3405.53 1802.04 3397.71C1799.5 3389.71 1797.16 3381.7 1795.01 3373.69C1793.06 3365.68 1791.3 3358.26 1789.74 3351.43ZM2087.98 3302.5C2087.98 3301.91 2088.08 3301.43 2088.27 3301.04C2088.27 3300.64 2088.37 3300.16 2088.57 3299.57C2089.35 3298.59 2090.52 3297.32 2092.08 3295.76C2093.64 3294.2 2094.62 3293.42 2095.01 3293.42H2153.9C2153.9 3291.27 2153.6 3287.85 2153.02 3283.16C2152.43 3278.48 2151.85 3273.3 2151.26 3267.64C2150.87 3261.97 2150.77 3256.11 2150.97 3250.06C2151.16 3243.81 2151.94 3238.24 2153.31 3233.36C2154.87 3228.28 2157.22 3224.18 2160.34 3221.05C2163.66 3217.73 2168.25 3216.07 2174.11 3216.07C2174.11 3235.8 2175.48 3251.62 2178.21 3263.54C2180.95 3275.45 2184.56 3284.63 2189.05 3291.07C2193.74 3297.52 2199.02 3301.72 2204.87 3303.67C2210.73 3305.62 2216.69 3306.5 2222.75 3306.31C2229 3305.92 2235.05 3304.94 2240.91 3303.38C2246.77 3301.82 2251.94 3300.74 2256.44 3300.16C2261.12 3299.57 2264.84 3300.06 2267.57 3301.62C2270.3 3302.99 2271.67 3306.41 2271.67 3311.87C2271.67 3315.98 2270.69 3318.91 2268.74 3320.66C2266.98 3322.42 2263.47 3323.79 2258.19 3324.77C2256.63 3324.96 2254 3325.35 2250.28 3325.94C2246.77 3326.33 2242.77 3326.72 2238.27 3327.11C2233.78 3327.5 2229 3327.99 2223.92 3328.57C2218.84 3328.96 2214.05 3329.36 2209.56 3329.75C2205.07 3330.14 2200.97 3330.43 2197.26 3330.62C2193.55 3330.62 2190.81 3330.62 2189.05 3330.62C2189.05 3331.6 2188.96 3333.26 2188.76 3335.61C2188.57 3337.95 2188.47 3339.51 2188.47 3340.29C2188.47 3348.89 2189.84 3357.29 2192.57 3365.49C2195.3 3373.5 2198.23 3381.5 2201.36 3389.51C2204.68 3397.52 2207.71 3405.53 2210.44 3413.54C2213.18 3421.54 2214.54 3429.84 2214.54 3438.44C2214.54 3440 2214.35 3441.66 2213.96 3443.42C2213.76 3444.98 2213.18 3446.45 2212.2 3447.81C2211.42 3448.98 2210.15 3449.86 2208.39 3450.45C2206.83 3451.23 2204.58 3451.13 2201.65 3450.16C2194.23 3448.2 2188.66 3444 2184.95 3437.56C2181.44 3431.11 2178.8 3423.5 2177.04 3414.71C2175.28 3405.72 2174.11 3396.25 2173.53 3386.29C2172.94 3376.33 2171.96 3367.05 2170.6 3358.46C2169.43 3349.67 2167.47 3342.25 2164.74 3336.19C2162 3329.94 2157.61 3326.13 2151.55 3324.77L2095.01 3311.87C2094.23 3311.87 2093.06 3311.09 2091.5 3309.53C2089.93 3307.77 2088.96 3306.5 2088.57 3305.72C2088.37 3305.33 2088.27 3304.84 2088.27 3304.26C2088.08 3303.87 2087.98 3303.28 2087.98 3302.5ZM2291.3 3259.73C2291.3 3257.58 2291.5 3254.94 2291.89 3251.82C2292.47 3248.5 2293.35 3245.37 2294.52 3242.44C2295.89 3239.51 2297.55 3237.07 2299.5 3235.12C2301.46 3232.97 2304 3231.89 2307.12 3231.89C2307.32 3231.89 2307.8 3231.99 2308.59 3232.19C2309.37 3232.38 2309.85 3232.48 2310.05 3232.48C2313.37 3244.59 2315.32 3256.6 2315.91 3268.52C2316.5 3280.43 2316.3 3292.05 2315.32 3303.38C2314.35 3314.51 2312.88 3325.35 2310.93 3335.9C2308.98 3346.25 2307.32 3355.82 2305.95 3364.61C2304.78 3373.4 2304 3381.31 2303.6 3388.34C2303.41 3395.37 2304.48 3401.33 2306.83 3406.21C2306.44 3403.09 2306.14 3399.37 2305.95 3395.08C2305.95 3390.59 2306.34 3386 2307.12 3381.31C2308.1 3376.62 2309.56 3371.93 2311.51 3367.25C2313.66 3362.56 2316.69 3358.36 2320.6 3354.65C2324.5 3350.94 2329.48 3348.01 2335.54 3345.86C2341.79 3343.71 2349.5 3342.64 2358.68 3342.64C2368.25 3342.64 2376.46 3344.3 2383.29 3347.62C2390.32 3350.94 2396.09 3355.53 2400.58 3361.39C2405.07 3367.05 2408.39 3373.79 2410.54 3381.6C2412.88 3389.22 2414.05 3397.42 2414.05 3406.21C2414.05 3410.31 2413.96 3415 2413.76 3420.27C2413.76 3425.35 2413.08 3430.14 2411.71 3434.63C2410.54 3438.93 2408.29 3442.64 2404.97 3445.76C2401.85 3448.69 2397.16 3450.16 2390.91 3450.16C2390.91 3447.03 2391.1 3442.83 2391.5 3437.56C2391.89 3432.09 2392.08 3426.33 2392.08 3420.27C2392.28 3414.22 2392.08 3408.07 2391.5 3401.82C2391.1 3395.57 2389.84 3390 2387.69 3385.12C2385.54 3380.04 2382.51 3375.94 2378.6 3372.81C2374.89 3369.49 2369.72 3367.83 2363.08 3367.83C2360.73 3367.83 2357.8 3368.03 2354.29 3368.42C2350.97 3368.61 2347.55 3369.49 2344.03 3371.05C2340.52 3372.62 2337.1 3375.06 2333.78 3378.38C2330.46 3381.5 2327.82 3385.9 2325.87 3391.56C2323.92 3397.03 2322.75 3404.06 2322.35 3412.66C2322.16 3421.05 2323.23 3431.41 2325.58 3443.71C2324.21 3447.23 2322.45 3449.28 2320.3 3449.86C2318.35 3450.45 2315.81 3450.74 2312.69 3450.74C2306.44 3450.74 2301.26 3448.59 2297.16 3444.3C2293.25 3439.8 2290.23 3433.85 2288.08 3426.43C2285.93 3419 2284.46 3410.41 2283.68 3400.64C2283.1 3390.88 2282.9 3380.72 2283.1 3370.18C2283.29 3359.43 2283.78 3348.59 2284.56 3337.66C2285.54 3326.52 2286.42 3316.07 2287.2 3306.31C2288.18 3296.35 2289.05 3287.36 2289.84 3279.36C2290.81 3271.15 2291.3 3264.61 2291.3 3259.73ZM2425.77 3368.71C2425.77 3358.16 2427.04 3347.62 2429.58 3337.07C2432.12 3326.52 2436.12 3317.05 2441.59 3308.65C2447.26 3300.25 2454.48 3293.42 2463.27 3288.14C2472.26 3282.87 2483.1 3280.23 2495.79 3280.23C2503.02 3280.23 2509.37 3281.6 2514.84 3284.34C2520.3 3286.87 2524.89 3290.29 2528.6 3294.59C2532.32 3298.89 2535.05 3303.96 2536.81 3309.82C2538.76 3315.49 2539.74 3321.45 2539.74 3327.7C2539.74 3337.66 2537.39 3347.32 2532.71 3356.7C2528.21 3366.07 2522.06 3374.37 2514.25 3381.6C2506.63 3388.63 2497.84 3394 2487.88 3397.71C2477.92 3401.23 2467.76 3402.01 2457.41 3400.06C2457.61 3405.72 2459.46 3410.31 2462.98 3413.83C2466.69 3417.15 2471.09 3419.69 2476.16 3421.45C2481.24 3423.2 2486.51 3424.37 2491.98 3424.96C2497.45 3425.35 2502.34 3425.55 2506.63 3425.55C2511.12 3425.55 2515.32 3425.16 2519.23 3424.37C2523.14 3423.59 2527.04 3422.71 2530.95 3421.74C2534.85 3420.76 2538.76 3419.88 2542.67 3419.1C2546.77 3418.32 2551.07 3417.93 2555.56 3417.93C2557.32 3417.93 2559.07 3418.03 2560.83 3418.22C2562.59 3418.42 2564.25 3418.91 2565.81 3419.69C2567.37 3420.27 2568.64 3421.35 2569.62 3422.91C2570.6 3424.28 2571.09 3426.04 2571.09 3428.18C2571.09 3431.89 2569.72 3435.02 2566.98 3437.56C2564.25 3439.9 2560.73 3441.95 2556.44 3443.71C2552.34 3445.47 2547.75 3446.84 2542.67 3447.81C2537.59 3448.59 2532.61 3449.28 2527.73 3449.86C2523.04 3450.25 2518.64 3450.45 2514.54 3450.45C2510.64 3450.64 2507.71 3450.74 2505.75 3450.74C2493.25 3450.74 2482.02 3448.79 2472.06 3444.88C2462.1 3440.78 2453.7 3435.21 2446.87 3428.18C2440.03 3420.96 2434.76 3412.36 2431.05 3402.4C2427.53 3392.25 2425.77 3381.02 2425.77 3368.71ZM2456.83 3349.67C2456.83 3356.5 2457.71 3361.48 2459.46 3364.61C2461.42 3367.73 2466.01 3369.3 2473.23 3369.3C2478.31 3369.3 2483.29 3368.42 2488.18 3366.66C2493.06 3364.71 2497.45 3362.07 2501.36 3358.75C2505.46 3355.43 2508.68 3351.52 2511.03 3347.03C2513.37 3342.54 2514.54 3337.66 2514.54 3332.38C2514.54 3329.45 2514.25 3326.43 2513.66 3323.3C2513.27 3320.18 2512.3 3317.34 2510.73 3314.8C2509.17 3312.07 2507.12 3309.92 2504.58 3308.36C2502.24 3306.6 2499.11 3305.72 2495.21 3305.72C2489.35 3305.72 2483.98 3307.09 2479.09 3309.82C2474.41 3312.36 2470.4 3315.78 2467.08 3320.08C2463.76 3324.18 2461.22 3328.87 2459.46 3334.14C2457.71 3339.22 2456.83 3344.39 2456.83 3349.67ZM2736.61 3340.29C2736.61 3339.12 2736.61 3337.27 2736.61 3334.73C2736.81 3331.99 2736.91 3329.16 2736.91 3326.23C2737.1 3323.3 2737.2 3320.47 2737.2 3317.73C2737.39 3315 2737.49 3313.05 2737.49 3311.87C2739.64 3308.75 2742.37 3306.21 2745.69 3304.26C2749.21 3302.3 2752.73 3300.74 2756.24 3299.57C2756.83 3310.12 2758.49 3321.35 2761.22 3333.26C2763.96 3345.18 2766.89 3357.19 2770.01 3369.3C2773.14 3381.21 2775.87 3393.03 2778.21 3404.75C2780.75 3416.46 2782.02 3427.4 2782.02 3437.56C2782.02 3446.35 2777.53 3450.74 2768.55 3450.74C2763.08 3450.74 2758.49 3448.5 2754.78 3444C2751.07 3439.51 2748.04 3433.85 2745.69 3427.01C2743.55 3419.98 2741.79 3412.27 2740.42 3403.87C2739.05 3395.27 2738.08 3386.87 2737.49 3378.67C2737.1 3370.47 2736.81 3362.95 2736.61 3356.11C2736.61 3349.28 2736.61 3344 2736.61 3340.29ZM2740.71 3230.43C2744.43 3231.99 2747.55 3234.53 2750.09 3238.05C2752.63 3241.56 2753.7 3244.79 2753.31 3247.71C2753.12 3250.45 2750.97 3252.4 2746.87 3253.57C2742.76 3254.55 2735.93 3253.38 2726.36 3250.06C2726.36 3244.79 2727.34 3240.2 2729.29 3236.29C2731.44 3232.38 2735.25 3230.43 2740.71 3230.43ZM2787 3327.11C2787 3322.23 2787.78 3318.42 2789.35 3315.68C2791.1 3312.95 2794.72 3311.58 2800.19 3311.58C2800.77 3311.58 2801.85 3311.68 2803.41 3311.87C2805.17 3311.87 2806.24 3311.87 2806.63 3311.87C2808 3317.93 2809.37 3324.57 2810.73 3331.8C2812.3 3338.83 2814.05 3345.96 2816.01 3353.18C2817.96 3360.41 2820.11 3367.54 2822.45 3374.57C2824.99 3381.6 2828.02 3387.95 2831.53 3393.61C2835.05 3389.9 2837.59 3385.51 2839.15 3380.43C2840.71 3375.35 2841.89 3370.27 2842.67 3365.2C2843.45 3359.92 2844.13 3354.94 2844.72 3350.25C2845.5 3345.37 2846.96 3341.27 2849.11 3337.95C2851.26 3334.43 2854.39 3331.89 2858.49 3330.33C2862.78 3328.77 2868.64 3328.77 2876.07 3330.33C2884.27 3330.33 2890.81 3331.89 2895.69 3335.02C2900.58 3337.95 2904.78 3341.76 2908.29 3346.45C2912 3350.94 2915.52 3355.82 2918.84 3361.09C2922.35 3366.17 2926.75 3370.76 2932.02 3374.86C2933.19 3372.32 2934.66 3369.2 2936.42 3365.49C2938.18 3361.58 2940.32 3357.58 2942.86 3353.48C2945.6 3349.18 2948.43 3344.98 2951.36 3340.88C2954.48 3336.58 2957.71 3332.77 2961.03 3329.45C2964.35 3325.94 2967.76 3323.11 2971.28 3320.96C2974.8 3318.61 2978.21 3317.44 2981.53 3317.44C2989.54 3317.44 2996.48 3319.98 3002.34 3325.06C3008.19 3329.94 3013.18 3336.19 3017.28 3343.81C3021.57 3351.23 3025.09 3359.63 3027.82 3369C3030.56 3378.18 3032.71 3387.07 3034.27 3395.66C3035.83 3404.26 3036.91 3412.17 3037.49 3419.39C3038.27 3426.43 3038.66 3431.5 3038.66 3434.63C3038.66 3437.17 3038.08 3439.12 3036.91 3440.49C3035.73 3441.86 3034.27 3442.93 3032.51 3443.71C3030.75 3444.3 3028.8 3444.69 3026.65 3444.88C3024.7 3445.08 3022.84 3445.18 3021.09 3445.18C3020.69 3445.18 3020.11 3445.18 3019.33 3445.18C3018.55 3444.98 3017.67 3444.79 3016.69 3444.59C3015.91 3444.39 3014.84 3444.1 3013.47 3443.71L2994.43 3356.11C2994.43 3355.53 2993.64 3354.45 2992.08 3352.89C2990.52 3351.13 2989.35 3350.06 2988.57 3349.67C2987.98 3349.67 2987.49 3349.57 2987.1 3349.37C2986.71 3349.37 2986.42 3349.37 2986.22 3349.37C2986.03 3349.18 2985.83 3349.08 2985.64 3349.08C2981.53 3349.08 2977.63 3350.74 2973.92 3354.06C2970.4 3357.38 2967.08 3361.58 2963.96 3366.66C2960.83 3371.74 2957.9 3377.4 2955.17 3383.65C2952.43 3389.9 2949.99 3396.15 2947.84 3402.4C2945.69 3408.46 2943.74 3414.12 2941.98 3419.39C2940.42 3424.47 2939.15 3428.38 2938.18 3431.11C2937.39 3431.5 2935.83 3431.89 2933.49 3432.29C2931.14 3432.48 2929.58 3432.58 2928.8 3432.58C2923.33 3432.58 2919.13 3430.72 2916.2 3427.01C2913.27 3423.11 2910.83 3418.32 2908.88 3412.66C2907.12 3406.99 2905.56 3400.84 2904.19 3394.2C2903.02 3387.36 2901.46 3381.11 2899.5 3375.45C2897.75 3369.79 2895.21 3365.1 2891.89 3361.39C2888.76 3357.48 2884.27 3355.53 2878.41 3355.53C2876.26 3355.53 2874.21 3357.68 2872.26 3361.97C2870.3 3366.27 2868.55 3371.74 2866.98 3378.38C2865.42 3384.82 2863.96 3391.86 2862.59 3399.47C2861.22 3406.89 2860.05 3413.93 2859.07 3420.57C2858.29 3427.01 2857.71 3432.48 2857.32 3436.97C2856.93 3441.46 2856.73 3443.71 2856.73 3443.71C2856.34 3444.3 2855.56 3444.98 2854.39 3445.76C2853.21 3446.35 2851.94 3447.03 2850.58 3447.81C2849.41 3448.59 2848.14 3449.18 2846.77 3449.57C2845.6 3449.96 2844.72 3450.16 2844.13 3450.16C2838.66 3450.16 2833.39 3447.71 2828.31 3442.83C2823.23 3437.75 2818.55 3431.31 2814.25 3423.5C2810.15 3415.49 2806.34 3406.7 2802.82 3397.13C2799.5 3387.56 2796.67 3378.18 2794.33 3369C2791.98 3359.82 2790.13 3351.52 2788.76 3344.1C2787.59 3336.68 2787 3331.02 2787 3327.11ZM3176.65 3412.36C3169.23 3417.44 3162.78 3422.03 3157.32 3426.13C3152.04 3430.04 3146.87 3433.36 3141.79 3436.09C3136.71 3438.83 3131.24 3440.88 3125.38 3442.25C3119.72 3443.61 3112.69 3444.3 3104.29 3444.3C3086.12 3444.3 3072.65 3439.51 3063.86 3429.94C3055.07 3420.18 3050.68 3405.72 3050.68 3386.58C3050.68 3379.16 3051.65 3371.45 3053.6 3363.44C3055.56 3355.43 3058.39 3347.52 3062.1 3339.71C3066.01 3331.7 3070.6 3324.18 3075.87 3317.15C3081.14 3309.92 3087.1 3303.57 3093.74 3298.11C3100.38 3292.64 3107.41 3288.34 3114.84 3285.21C3122.45 3281.89 3130.46 3280.23 3138.86 3280.23C3152.92 3281.6 3163.96 3285.12 3171.96 3290.78C3179.97 3296.25 3186.03 3303.38 3190.13 3312.17C3194.23 3320.76 3197.06 3330.43 3198.62 3341.17C3200.19 3351.72 3201.36 3362.66 3202.14 3373.98C3203.12 3385.31 3204.29 3396.64 3205.66 3407.97C3207.02 3419.3 3209.85 3429.75 3214.15 3439.32C3211.61 3445.76 3209.17 3450.25 3206.83 3452.79C3204.68 3455.53 3202.24 3456.02 3199.5 3454.26C3196.77 3452.5 3193.55 3448.2 3189.84 3441.37C3186.32 3434.53 3181.93 3424.86 3176.65 3412.36ZM3075.58 3387.17C3075.58 3398.3 3077.63 3406.5 3081.73 3411.78C3086.03 3416.86 3093.55 3419.39 3104.29 3419.39C3112.3 3419.39 3119.91 3418.03 3127.14 3415.29C3134.56 3412.36 3141.01 3408.46 3146.48 3403.57C3151.94 3398.5 3156.34 3392.44 3159.66 3385.41C3162.98 3378.38 3164.64 3370.57 3164.64 3361.97C3164.64 3358.46 3164.74 3353.57 3164.93 3347.32C3165.13 3340.88 3164.74 3334.53 3163.76 3328.28C3162.78 3322.03 3160.93 3316.66 3158.19 3312.17C3155.46 3307.48 3151.36 3305.14 3145.89 3305.14C3135.73 3305.14 3126.36 3307.77 3117.76 3313.05C3109.17 3318.12 3101.75 3324.67 3095.5 3332.68C3089.25 3340.68 3084.37 3349.57 3080.85 3359.34C3077.34 3368.91 3075.58 3378.18 3075.58 3387.17ZM3308.19 3606.02C3319.13 3606.02 3328.9 3603.96 3337.49 3599.86C3346.09 3595.96 3353.31 3590.49 3359.17 3583.46C3365.23 3576.62 3369.82 3568.71 3372.94 3559.73C3376.26 3550.94 3377.92 3541.76 3377.92 3532.19C3377.92 3527.3 3377.63 3520.86 3377.04 3512.85C3376.65 3504.84 3375.97 3496.15 3374.99 3486.78C3374.01 3477.4 3372.55 3467.83 3370.6 3458.07C3368.84 3448.3 3366.59 3439.12 3363.86 3430.53C3361.12 3421.74 3357.71 3414.12 3353.6 3407.68C3349.7 3401.04 3345.11 3396.35 3339.84 3393.61C3334.76 3397.52 3329.78 3401.13 3324.89 3404.45C3320.01 3407.58 3314.93 3410.21 3309.66 3412.36C3304.39 3414.51 3298.92 3416.27 3293.25 3417.64C3287.59 3418.81 3281.53 3419.39 3275.09 3419.39C3266.69 3419.39 3259.46 3418.61 3253.41 3417.05C3247.55 3415.49 3242.57 3412.85 3238.47 3409.14C3234.56 3405.43 3231.63 3400.55 3229.68 3394.49C3227.73 3388.44 3226.75 3380.82 3226.75 3371.64C3226.75 3365.2 3228.31 3358.95 3231.44 3352.89C3234.56 3346.64 3238.66 3340.88 3243.74 3335.61C3249.01 3330.14 3254.87 3325.16 3261.32 3320.66C3267.96 3316.17 3274.7 3312.27 3281.53 3308.95C3288.57 3305.62 3295.4 3303.09 3302.04 3301.33C3308.88 3299.57 3314.93 3298.69 3320.21 3298.69C3325.28 3298.69 3329.48 3298.89 3332.8 3299.28C3336.12 3299.47 3338.96 3300.25 3341.3 3301.62C3343.64 3302.79 3345.6 3304.75 3347.16 3307.48C3348.92 3310.02 3350.58 3313.54 3352.14 3318.03C3356.63 3333.26 3361.81 3349.67 3367.67 3367.25C3373.53 3384.82 3379.09 3402.89 3384.37 3421.45C3389.64 3440 3394.03 3458.65 3397.55 3477.4C3401.26 3496.35 3403.12 3514.61 3403.12 3532.19C3403.12 3547.81 3400.87 3561 3396.38 3571.74C3392.08 3582.68 3386.32 3591.56 3379.09 3598.4C3372.06 3605.43 3363.96 3610.8 3354.78 3614.51C3345.79 3618.22 3336.71 3620.57 3327.53 3621.54C3318.35 3622.71 3309.46 3623.01 3300.87 3622.42C3292.28 3621.84 3284.85 3620.66 3278.6 3618.91C3272.35 3617.34 3267.57 3615.49 3264.25 3613.34C3261.12 3611.19 3260.34 3609.34 3261.91 3607.77C3263.66 3606.41 3268.16 3605.43 3275.38 3604.84C3282.61 3604.26 3293.55 3604.65 3308.19 3606.02ZM3312.3 3323.3C3297.84 3326.43 3286.12 3330.82 3277.14 3336.48C3268.35 3341.95 3261.71 3347.91 3257.22 3354.36C3252.92 3360.61 3250.58 3366.95 3250.19 3373.4C3249.8 3379.65 3250.97 3385.02 3253.7 3389.51C3256.44 3394 3260.34 3397.42 3265.42 3399.77C3270.69 3401.91 3276.65 3402.01 3283.29 3400.06C3289.93 3397.91 3296.96 3393.42 3304.39 3386.58C3312 3379.75 3319.62 3369.59 3327.24 3356.11C3327.24 3352.79 3327.24 3349.18 3327.24 3345.27C3327.43 3341.37 3327.14 3337.85 3326.36 3334.73C3325.58 3331.41 3324.11 3328.67 3321.96 3326.52C3319.82 3324.37 3316.59 3323.3 3312.3 3323.3ZM3402.24 3368.71C3402.24 3358.16 3403.51 3347.62 3406.05 3337.07C3408.59 3326.52 3412.59 3317.05 3418.06 3308.65C3423.72 3300.25 3430.95 3293.42 3439.74 3288.14C3448.72 3282.87 3459.56 3280.23 3472.26 3280.23C3479.48 3280.23 3485.83 3281.6 3491.3 3284.34C3496.77 3286.87 3501.36 3290.29 3505.07 3294.59C3508.78 3298.89 3511.51 3303.96 3513.27 3309.82C3515.23 3315.49 3516.2 3321.45 3516.2 3327.7C3516.2 3337.66 3513.86 3347.32 3509.17 3356.7C3504.68 3366.07 3498.53 3374.37 3490.71 3381.6C3483.1 3388.63 3474.31 3394 3464.35 3397.71C3454.39 3401.23 3444.23 3402.01 3433.88 3400.06C3434.07 3405.72 3435.93 3410.31 3439.44 3413.83C3443.16 3417.15 3447.55 3419.69 3452.63 3421.45C3457.71 3423.2 3462.98 3424.37 3468.45 3424.96C3473.92 3425.35 3478.8 3425.55 3483.1 3425.55C3487.59 3425.55 3491.79 3425.16 3495.69 3424.37C3499.6 3423.59 3503.51 3422.71 3507.41 3421.74C3511.32 3420.76 3515.23 3419.88 3519.13 3419.1C3523.23 3418.32 3527.53 3417.93 3532.02 3417.93C3533.78 3417.93 3535.54 3418.03 3537.3 3418.22C3539.05 3418.42 3540.71 3418.91 3542.28 3419.69C3543.84 3420.27 3545.11 3421.35 3546.09 3422.91C3547.06 3424.28 3547.55 3426.04 3547.55 3428.18C3547.55 3431.89 3546.18 3435.02 3543.45 3437.56C3540.71 3439.9 3537.2 3441.95 3532.9 3443.71C3528.8 3445.47 3524.21 3446.84 3519.13 3447.81C3514.05 3448.59 3509.07 3449.28 3504.19 3449.86C3499.5 3450.25 3495.11 3450.45 3491.01 3450.45C3487.1 3450.64 3484.17 3450.74 3482.22 3450.74C3469.72 3450.74 3458.49 3448.79 3448.53 3444.88C3438.57 3440.78 3430.17 3435.21 3423.33 3428.18C3416.5 3420.96 3411.22 3412.36 3407.51 3402.4C3404 3392.25 3402.24 3381.02 3402.24 3368.71ZM3433.29 3349.67C3433.29 3356.5 3434.17 3361.48 3435.93 3364.61C3437.88 3367.73 3442.47 3369.3 3449.7 3369.3C3454.78 3369.3 3459.76 3368.42 3464.64 3366.66C3469.52 3364.71 3473.92 3362.07 3477.82 3358.75C3481.93 3355.43 3485.15 3351.52 3487.49 3347.03C3489.84 3342.54 3491.01 3337.66 3491.01 3332.38C3491.01 3329.45 3490.71 3326.43 3490.13 3323.3C3489.74 3320.18 3488.76 3317.34 3487.2 3314.8C3485.64 3312.07 3483.59 3309.92 3481.05 3308.36C3478.7 3306.6 3475.58 3305.72 3471.67 3305.72C3465.81 3305.72 3460.44 3307.09 3455.56 3309.82C3450.87 3312.36 3446.87 3315.78 3443.55 3320.08C3440.23 3324.18 3437.69 3328.87 3435.93 3334.14C3434.17 3339.22 3433.29 3344.39 3433.29 3349.67ZM3694.33 3302.5C3694.33 3301.91 3694.43 3301.43 3694.62 3301.04C3694.62 3300.64 3694.72 3300.16 3694.91 3299.57C3695.69 3298.59 3696.87 3297.32 3698.43 3295.76C3699.99 3294.2 3700.97 3293.42 3701.36 3293.42H3760.25C3760.25 3291.27 3759.95 3287.85 3759.37 3283.16C3758.78 3278.48 3758.19 3273.3 3757.61 3267.64C3757.22 3261.97 3757.12 3256.11 3757.32 3250.06C3757.51 3243.81 3758.29 3238.24 3759.66 3233.36C3761.22 3228.28 3763.57 3224.18 3766.69 3221.05C3770.01 3217.73 3774.6 3216.07 3780.46 3216.07C3780.46 3235.8 3781.83 3251.62 3784.56 3263.54C3787.3 3275.45 3790.91 3284.63 3795.4 3291.07C3800.09 3297.52 3805.36 3301.72 3811.22 3303.67C3817.08 3305.62 3823.04 3306.5 3829.09 3306.31C3835.34 3305.92 3841.4 3304.94 3847.26 3303.38C3853.12 3301.82 3858.29 3300.74 3862.78 3300.16C3867.47 3299.57 3871.18 3300.06 3873.92 3301.62C3876.65 3302.99 3878.02 3306.41 3878.02 3311.87C3878.02 3315.98 3877.04 3318.91 3875.09 3320.66C3873.33 3322.42 3869.82 3323.79 3864.54 3324.77C3862.98 3324.96 3860.34 3325.35 3856.63 3325.94C3853.12 3326.33 3849.11 3326.72 3844.62 3327.11C3840.13 3327.5 3835.34 3327.99 3830.26 3328.57C3825.19 3328.96 3820.4 3329.36 3815.91 3329.75C3811.42 3330.14 3807.32 3330.43 3803.6 3330.62C3799.89 3330.62 3797.16 3330.62 3795.4 3330.62C3795.4 3331.6 3795.3 3333.26 3795.11 3335.61C3794.91 3337.95 3794.82 3339.51 3794.82 3340.29C3794.82 3348.89 3796.18 3357.29 3798.92 3365.49C3801.65 3373.5 3804.58 3381.5 3807.71 3389.51C3811.03 3397.52 3814.05 3405.53 3816.79 3413.54C3819.52 3421.54 3820.89 3429.84 3820.89 3438.44C3820.89 3440 3820.69 3441.66 3820.3 3443.42C3820.11 3444.98 3819.52 3446.45 3818.55 3447.81C3817.76 3448.98 3816.5 3449.86 3814.74 3450.45C3813.18 3451.23 3810.93 3451.13 3808 3450.16C3800.58 3448.2 3795.01 3444 3791.3 3437.56C3787.78 3431.11 3785.15 3423.5 3783.39 3414.71C3781.63 3405.72 3780.46 3396.25 3779.87 3386.29C3779.29 3376.33 3778.31 3367.05 3776.94 3358.46C3775.77 3349.67 3773.82 3342.25 3771.09 3336.19C3768.35 3329.94 3763.96 3326.13 3757.9 3324.77L3701.36 3311.87C3700.58 3311.87 3699.41 3311.09 3697.84 3309.53C3696.28 3307.77 3695.3 3306.5 3694.91 3305.72C3694.72 3305.33 3694.62 3304.84 3694.62 3304.26C3694.43 3303.87 3694.33 3303.28 3694.33 3302.5ZM3889.15 3390.68C3889.15 3378.57 3891.98 3367.34 3897.65 3356.99C3903.31 3346.45 3910.73 3337.46 3919.91 3330.04C3929.29 3322.42 3939.74 3316.46 3951.26 3312.17C3962.98 3307.87 3974.8 3305.72 3986.71 3305.72C3993.35 3305.72 3999.21 3307.87 4004.29 3312.17C4009.56 3316.46 4013.96 3321.74 4017.47 3327.99C4020.99 3334.04 4023.62 3340.49 4025.38 3347.32C4027.34 3354.16 4028.31 3360.12 4028.31 3365.2C4028.31 3376.13 4025.68 3386.78 4020.4 3397.13C4015.13 3407.29 4008.29 3416.37 3999.89 3424.37C3991.5 3432.19 3982.02 3438.54 3971.48 3443.42C3960.93 3448.3 3950.38 3450.74 3939.84 3450.74C3930.46 3450.74 3922.55 3449.18 3916.1 3446.05C3909.66 3442.73 3904.48 3438.44 3900.58 3433.16C3896.67 3427.7 3893.74 3421.35 3891.79 3414.12C3890.03 3406.7 3889.15 3398.89 3889.15 3390.68ZM3914.05 3393.61C3914.05 3398.69 3914.44 3403.18 3915.23 3407.09C3916.2 3410.8 3917.76 3414.02 3919.91 3416.76C3922.26 3419.49 3925.28 3421.64 3929 3423.2C3932.71 3424.57 3937.3 3425.25 3942.76 3425.25C3949.99 3425.25 3957.22 3423.3 3964.44 3419.39C3971.67 3415.29 3978.12 3410.21 3983.78 3404.16C3989.64 3397.91 3994.33 3391.07 3997.84 3383.65C4001.36 3376.23 4003.12 3369 4003.12 3361.97C4003.12 3358.85 4002.82 3355.43 4002.24 3351.72C4001.65 3348.01 4000.68 3344.59 3999.31 3341.46C3997.94 3338.34 3995.99 3335.7 3993.45 3333.55C3990.91 3331.41 3987.69 3330.33 3983.78 3330.33C3980.26 3330.33 3976.07 3331.5 3971.18 3333.85C3966.5 3336.19 3961.51 3339.22 3956.24 3342.93C3951.16 3346.64 3946.09 3350.84 3941.01 3355.53C3936.12 3360.21 3931.63 3364.9 3927.53 3369.59C3923.43 3374.28 3920.11 3378.77 3917.57 3383.07C3915.23 3387.36 3914.05 3390.88 3914.05 3393.61ZM4168.94 3361.97C4168.94 3353.77 4170.69 3345.18 4174.21 3336.19C4177.92 3327.21 4182.8 3319.1 4188.86 3311.87C4194.91 3304.45 4201.85 3298.3 4209.66 3293.42C4217.67 3288.54 4226.07 3286.09 4234.85 3286.09C4239.35 3286.09 4243.84 3286.87 4248.33 3288.44C4252.82 3290 4256.83 3292.25 4260.34 3295.18C4264.05 3298.11 4266.98 3301.62 4269.13 3305.72C4271.48 3309.82 4272.65 3314.41 4272.65 3319.49C4269.13 3319.49 4265.91 3319.1 4262.98 3318.32C4260.25 3317.54 4257.51 3316.66 4254.78 3315.68C4252.04 3314.51 4249.31 3313.54 4246.57 3312.75C4244.03 3311.97 4241.2 3311.58 4238.08 3311.58C4230.07 3311.58 4223.53 3313.63 4218.45 3317.73C4213.57 3321.64 4209.66 3326.62 4206.73 3332.68C4203.8 3338.73 4201.75 3345.27 4200.58 3352.3C4199.6 3359.14 4199.11 3365.59 4199.11 3371.64C4199.11 3372.62 4199.11 3374.47 4199.11 3377.21C4199.31 3379.94 4199.41 3382.87 4199.41 3386C4199.6 3388.93 4199.7 3391.76 4199.7 3394.49C4199.89 3397.23 4200.09 3399.08 4200.28 3400.06C4202.43 3404.75 4204.48 3408.36 4206.44 3410.9C4208.59 3413.44 4210.83 3415.39 4213.18 3416.76C4215.52 3417.93 4218.06 3418.71 4220.79 3419.1C4223.53 3419.3 4226.75 3419.39 4230.46 3419.39C4235.54 3419.39 4239.93 3418.61 4243.64 3417.05C4247.55 3415.49 4251.16 3413.63 4254.48 3411.48C4257.8 3409.34 4260.93 3406.99 4263.86 3404.45C4266.79 3401.72 4269.82 3399.28 4272.94 3397.13C4276.26 3394.79 4279.78 3392.93 4283.49 3391.56C4287.39 3390 4291.79 3389.22 4296.67 3389.22C4296.67 3398.79 4294.91 3407.29 4291.4 3414.71C4288.08 3422.13 4283.29 3428.48 4277.04 3433.75C4270.99 3439.02 4263.76 3443.12 4255.36 3446.05C4247.16 3448.79 4238.18 3450.16 4228.41 3450.16C4219.23 3450.16 4210.93 3447.03 4203.51 3440.78C4196.28 3434.53 4190.03 3426.91 4184.76 3417.93C4179.68 3408.75 4175.77 3399.08 4173.04 3388.93C4170.3 3378.77 4168.94 3369.79 4168.94 3361.97ZM4321.57 3259.73C4321.57 3257.58 4321.77 3254.94 4322.16 3251.82C4322.75 3248.5 4323.62 3245.37 4324.8 3242.44C4326.16 3239.51 4327.82 3237.07 4329.78 3235.12C4331.73 3232.97 4334.27 3231.89 4337.39 3231.89C4337.59 3231.89 4338.08 3231.99 4338.86 3232.19C4339.64 3232.38 4340.13 3232.48 4340.32 3232.48C4343.64 3244.59 4345.6 3256.6 4346.18 3268.52C4346.77 3280.43 4346.57 3292.05 4345.6 3303.38C4344.62 3314.51 4343.16 3325.35 4341.2 3335.9C4339.25 3346.25 4337.59 3355.82 4336.22 3364.61C4335.05 3373.4 4334.27 3381.31 4333.88 3388.34C4333.68 3395.37 4334.76 3401.33 4337.1 3406.21C4336.71 3403.09 4336.42 3399.37 4336.22 3395.08C4336.22 3390.59 4336.61 3386 4337.39 3381.31C4338.37 3376.62 4339.84 3371.93 4341.79 3367.25C4343.94 3362.56 4346.96 3358.36 4350.87 3354.65C4354.78 3350.94 4359.76 3348.01 4365.81 3345.86C4372.06 3343.71 4379.78 3342.64 4388.96 3342.64C4398.53 3342.64 4406.73 3344.3 4413.57 3347.62C4420.6 3350.94 4426.36 3355.53 4430.85 3361.39C4435.34 3367.05 4438.66 3373.79 4440.81 3381.6C4443.16 3389.22 4444.33 3397.42 4444.33 3406.21C4444.33 3410.31 4444.23 3415 4444.03 3420.27C4444.03 3425.35 4443.35 3430.14 4441.98 3434.63C4440.81 3438.93 4438.57 3442.64 4435.25 3445.76C4432.12 3448.69 4427.43 3450.16 4421.18 3450.16C4421.18 3447.03 4421.38 3442.83 4421.77 3437.56C4422.16 3432.09 4422.35 3426.33 4422.35 3420.27C4422.55 3414.22 4422.35 3408.07 4421.77 3401.82C4421.38 3395.57 4420.11 3390 4417.96 3385.12C4415.81 3380.04 4412.78 3375.94 4408.88 3372.81C4405.17 3369.49 4399.99 3367.83 4393.35 3367.83C4391.01 3367.83 4388.08 3368.03 4384.56 3368.42C4381.24 3368.61 4377.82 3369.49 4374.31 3371.05C4370.79 3372.62 4367.37 3375.06 4364.05 3378.38C4360.73 3381.5 4358.1 3385.9 4356.14 3391.56C4354.19 3397.03 4353.02 3404.06 4352.63 3412.66C4352.43 3421.05 4353.51 3431.41 4355.85 3443.71C4354.48 3447.23 4352.73 3449.28 4350.58 3449.86C4348.62 3450.45 4346.09 3450.74 4342.96 3450.74C4336.71 3450.74 4331.53 3448.59 4327.43 3444.3C4323.53 3439.8 4320.5 3433.85 4318.35 3426.43C4316.2 3419 4314.74 3410.41 4313.96 3400.64C4313.37 3390.88 4313.18 3380.72 4313.37 3370.18C4313.57 3359.43 4314.05 3348.59 4314.84 3337.66C4315.81 3326.52 4316.69 3316.07 4317.47 3306.31C4318.45 3296.35 4319.33 3287.36 4320.11 3279.36C4321.09 3271.15 4321.57 3264.61 4321.57 3259.73ZM4456.05 3368.71C4456.05 3358.16 4457.32 3347.62 4459.85 3337.07C4462.39 3326.52 4466.4 3317.05 4471.87 3308.65C4477.53 3300.25 4484.76 3293.42 4493.55 3288.14C4502.53 3282.87 4513.37 3280.23 4526.07 3280.23C4533.29 3280.23 4539.64 3281.6 4545.11 3284.34C4550.58 3286.87 4555.17 3290.29 4558.88 3294.59C4562.59 3298.89 4565.32 3303.96 4567.08 3309.82C4569.03 3315.49 4570.01 3321.45 4570.01 3327.7C4570.01 3337.66 4567.67 3347.32 4562.98 3356.7C4558.49 3366.07 4552.34 3374.37 4544.52 3381.6C4536.91 3388.63 4528.12 3394 4518.16 3397.71C4508.19 3401.23 4498.04 3402.01 4487.69 3400.06C4487.88 3405.72 4489.74 3410.31 4493.25 3413.83C4496.96 3417.15 4501.36 3419.69 4506.44 3421.45C4511.51 3423.2 4516.79 3424.37 4522.26 3424.96C4527.73 3425.35 4532.61 3425.55 4536.91 3425.55C4541.4 3425.55 4545.6 3425.16 4549.5 3424.37C4553.41 3423.59 4557.32 3422.71 4561.22 3421.74C4565.13 3420.76 4569.03 3419.88 4572.94 3419.1C4577.04 3418.32 4581.34 3417.93 4585.83 3417.93C4587.59 3417.93 4589.35 3418.03 4591.1 3418.22C4592.86 3418.42 4594.52 3418.91 4596.09 3419.69C4597.65 3420.27 4598.92 3421.35 4599.89 3422.91C4600.87 3424.28 4601.36 3426.04 4601.36 3428.18C4601.36 3431.89 4599.99 3435.02 4597.26 3437.56C4594.52 3439.9 4591.01 3441.95 4586.71 3443.71C4582.61 3445.47 4578.02 3446.84 4572.94 3447.81C4567.86 3448.59 4562.88 3449.28 4558 3449.86C4553.31 3450.25 4548.92 3450.45 4544.82 3450.45C4540.91 3450.64 4537.98 3450.74 4536.03 3450.74C4523.53 3450.74 4512.3 3448.79 4502.34 3444.88C4492.37 3440.78 4483.98 3435.21 4477.14 3428.18C4470.3 3420.96 4465.03 3412.36 4461.32 3402.4C4457.8 3392.25 4456.05 3381.02 4456.05 3368.71ZM4487.1 3349.67C4487.1 3356.5 4487.98 3361.48 4489.74 3364.61C4491.69 3367.73 4496.28 3369.3 4503.51 3369.3C4508.59 3369.3 4513.57 3368.42 4518.45 3366.66C4523.33 3364.71 4527.73 3362.07 4531.63 3358.75C4535.73 3355.43 4538.96 3351.52 4541.3 3347.03C4543.64 3342.54 4544.82 3337.66 4544.82 3332.38C4544.82 3329.45 4544.52 3326.43 4543.94 3323.3C4543.55 3320.18 4542.57 3317.34 4541.01 3314.8C4539.44 3312.07 4537.39 3309.92 4534.85 3308.36C4532.51 3306.6 4529.39 3305.72 4525.48 3305.72C4519.62 3305.72 4514.25 3307.09 4509.37 3309.82C4504.68 3312.36 4500.68 3315.78 4497.35 3320.08C4494.03 3324.18 4491.5 3328.87 4489.74 3334.14C4487.98 3339.22 4487.1 3344.39 4487.1 3349.67ZM4613.66 3361.97C4613.66 3353.77 4615.42 3345.18 4618.94 3336.19C4622.65 3327.21 4627.53 3319.1 4633.59 3311.87C4639.64 3304.45 4646.57 3298.3 4654.39 3293.42C4662.39 3288.54 4670.79 3286.09 4679.58 3286.09C4684.07 3286.09 4688.57 3286.87 4693.06 3288.44C4697.55 3290 4701.55 3292.25 4705.07 3295.18C4708.78 3298.11 4711.71 3301.62 4713.86 3305.72C4716.2 3309.82 4717.37 3314.41 4717.37 3319.49C4713.86 3319.49 4710.64 3319.1 4707.71 3318.32C4704.97 3317.54 4702.24 3316.66 4699.5 3315.68C4696.77 3314.51 4694.03 3313.54 4691.3 3312.75C4688.76 3311.97 4685.93 3311.58 4682.8 3311.58C4674.8 3311.58 4668.25 3313.63 4663.18 3317.73C4658.29 3321.64 4654.39 3326.62 4651.46 3332.68C4648.53 3338.73 4646.48 3345.27 4645.3 3352.3C4644.33 3359.14 4643.84 3365.59 4643.84 3371.64C4643.84 3372.62 4643.84 3374.47 4643.84 3377.21C4644.03 3379.94 4644.13 3382.87 4644.13 3386C4644.33 3388.93 4644.43 3391.76 4644.43 3394.49C4644.62 3397.23 4644.82 3399.08 4645.01 3400.06C4647.16 3404.75 4649.21 3408.36 4651.16 3410.9C4653.31 3413.44 4655.56 3415.39 4657.9 3416.76C4660.25 3417.93 4662.78 3418.71 4665.52 3419.1C4668.25 3419.3 4671.48 3419.39 4675.19 3419.39C4680.26 3419.39 4684.66 3418.61 4688.37 3417.05C4692.28 3415.49 4695.89 3413.63 4699.21 3411.48C4702.53 3409.34 4705.66 3406.99 4708.59 3404.45C4711.51 3401.72 4714.54 3399.28 4717.67 3397.13C4720.99 3394.79 4724.5 3392.93 4728.21 3391.56C4732.12 3390 4736.51 3389.22 4741.4 3389.22C4741.4 3398.79 4739.64 3407.29 4736.12 3414.71C4732.8 3422.13 4728.02 3428.48 4721.77 3433.75C4715.71 3439.02 4708.49 3443.12 4700.09 3446.05C4691.89 3448.79 4682.9 3450.16 4673.14 3450.16C4663.96 3450.16 4655.66 3447.03 4648.23 3440.78C4641.01 3434.53 4634.76 3426.91 4629.48 3417.93C4624.41 3408.75 4620.5 3399.08 4617.76 3388.93C4615.03 3378.77 4613.66 3369.79 4613.66 3361.97ZM4814.64 3444.3C4811.51 3447.03 4808.19 3445.76 4804.68 3440.49C4801.36 3435.21 4797.94 3427.3 4794.43 3416.76C4790.91 3406.02 4787.39 3393.22 4783.88 3378.38C4780.56 3363.54 4777.34 3347.81 4774.21 3331.21C4771.09 3314.61 4768.06 3297.81 4765.13 3280.82C4762.39 3263.63 4759.95 3247.52 4757.8 3232.48C4757.8 3229.75 4757.71 3227.01 4757.51 3224.28C4757.51 3221.35 4757.8 3218.71 4758.39 3216.37C4759.17 3213.83 4760.44 3211.58 4762.2 3209.63C4764.15 3207.68 4767.08 3206.21 4770.99 3205.23C4771.38 3205.04 4772.16 3205.23 4773.33 3205.82C4774.7 3206.21 4776.07 3206.8 4777.43 3207.58C4778.8 3208.16 4779.97 3208.85 4780.95 3209.63C4782.12 3210.41 4782.9 3211.09 4783.29 3211.68C4780.75 3248.2 4784.95 3283.75 4795.89 3318.32C4796.48 3317.73 4798.04 3315.78 4800.58 3312.46C4803.12 3308.95 4806.34 3304.94 4810.25 3300.45C4814.15 3295.76 4818.55 3290.78 4823.43 3285.51C4828.51 3280.23 4833.78 3275.35 4839.25 3270.86C4844.72 3266.37 4850.19 3262.66 4855.66 3259.73C4861.12 3256.6 4866.4 3255.04 4871.48 3255.04C4874.41 3255.04 4877.24 3255.72 4879.97 3257.09C4882.9 3258.46 4884.37 3261.09 4884.37 3265C4884.37 3265.39 4884.27 3265.98 4884.07 3266.76C4883.88 3267.34 4883.78 3267.83 4883.78 3268.22C4880.66 3270.96 4875.87 3275.16 4869.43 3280.82C4863.18 3286.48 4856.53 3292.83 4849.5 3299.86C4842.47 3306.89 4835.73 3314.22 4829.29 3321.84C4822.84 3329.45 4817.96 3336.68 4814.64 3343.52C4814.05 3344.69 4813.86 3345.76 4814.05 3346.74C4814.25 3347.52 4814.44 3348.5 4814.64 3349.67C4816.79 3350.45 4820.21 3351.62 4824.89 3353.18C4829.58 3354.75 4834.76 3356.6 4840.42 3358.75C4846.09 3360.7 4852.14 3362.85 4858.59 3365.2C4865.03 3367.34 4871.09 3369.49 4876.75 3371.64C4882.41 3373.79 4887.49 3375.74 4891.98 3377.5C4896.67 3379.06 4900.19 3380.23 4902.53 3381.02C4905.26 3382.19 4907.51 3382.97 4909.27 3383.36C4911.03 3383.75 4912.39 3384.34 4913.37 3385.12C4914.35 3385.7 4915.03 3386.58 4915.42 3387.75C4915.81 3388.93 4916.01 3390.68 4916.01 3393.03C4916.01 3398.69 4914.64 3402.4 4911.91 3404.16C4909.17 3405.92 4905.26 3406.8 4900.19 3406.8C4885.15 3405.82 4870.4 3402.7 4855.95 3397.42C4841.5 3391.95 4826.85 3385.41 4812 3377.79C4811.42 3381.5 4811.61 3385.8 4812.59 3390.68C4813.76 3395.57 4815.13 3400.45 4816.69 3405.33C4818.25 3410.21 4819.72 3415 4821.09 3419.69C4822.65 3424.37 4823.53 3428.57 4823.72 3432.29C4824.11 3436 4823.72 3438.93 4822.55 3441.07C4821.38 3443.22 4818.74 3444.3 4814.64 3444.3ZM5062.49 3390.68C5062.49 3378.57 5065.32 3367.34 5070.99 3356.99C5076.65 3346.45 5084.07 3337.46 5093.25 3330.04C5102.63 3322.42 5113.08 3316.46 5124.6 3312.17C5136.32 3307.87 5148.14 3305.72 5160.05 3305.72C5166.69 3305.72 5172.55 3307.87 5177.63 3312.17C5182.9 3316.46 5187.3 3321.74 5190.81 3327.99C5194.33 3334.04 5196.96 3340.49 5198.72 3347.32C5200.67 3354.16 5201.65 3360.12 5201.65 3365.2C5201.65 3376.13 5199.01 3386.78 5193.74 3397.13C5188.47 3407.29 5181.63 3416.37 5173.23 3424.37C5164.84 3432.19 5155.36 3438.54 5144.82 3443.42C5134.27 3448.3 5123.72 3450.74 5113.17 3450.74C5103.8 3450.74 5095.89 3449.18 5089.44 3446.05C5083 3442.73 5077.82 3438.44 5073.92 3433.16C5070.01 3427.7 5067.08 3421.35 5065.13 3414.12C5063.37 3406.7 5062.49 3398.89 5062.49 3390.68ZM5087.39 3393.61C5087.39 3398.69 5087.78 3403.18 5088.57 3407.09C5089.54 3410.8 5091.1 3414.02 5093.25 3416.76C5095.6 3419.49 5098.62 3421.64 5102.34 3423.2C5106.05 3424.57 5110.64 3425.25 5116.1 3425.25C5123.33 3425.25 5130.56 3423.3 5137.78 3419.39C5145.01 3415.29 5151.46 3410.21 5157.12 3404.16C5162.98 3397.91 5167.67 3391.07 5171.18 3383.65C5174.7 3376.23 5176.46 3369 5176.46 3361.97C5176.46 3358.85 5176.16 3355.43 5175.58 3351.72C5174.99 3348.01 5174.01 3344.59 5172.65 3341.46C5171.28 3338.34 5169.33 3335.7 5166.79 3333.55C5164.25 3331.41 5161.03 3330.33 5157.12 3330.33C5153.6 3330.33 5149.41 3331.5 5144.52 3333.85C5139.84 3336.19 5134.85 3339.22 5129.58 3342.93C5124.5 3346.64 5119.42 3350.84 5114.35 3355.53C5109.46 3360.21 5104.97 3364.9 5100.87 3369.59C5096.77 3374.28 5093.45 3378.77 5090.91 3383.07C5088.57 3387.36 5087.39 3390.88 5087.39 3393.61ZM5213.08 3330.62C5213.08 3329.45 5213.08 3327.4 5213.08 3324.47C5213.27 3321.35 5213.37 3318.12 5213.37 3314.8C5213.37 3311.48 5213.37 3308.46 5213.37 3305.72C5213.57 3302.79 5213.66 3300.74 5213.66 3299.57C5215.03 3297.23 5216.59 3294.98 5218.35 3292.83C5220.3 3290.49 5222.26 3288.93 5224.21 3288.14C5226.36 3287.17 5228.6 3286.97 5230.95 3287.56C5233.49 3288.14 5236.03 3290.1 5238.57 3293.42V3295.76V3299.57C5238.37 3300.55 5237.98 3302.89 5237.39 3306.6C5236.81 3310.12 5236.12 3314.02 5235.34 3318.32C5234.56 3322.62 5233.78 3326.62 5233 3330.33C5232.41 3333.85 5232.12 3336.09 5232.12 3337.07C5232.12 3340.78 5232.51 3345.47 5233.29 3351.13C5234.07 3356.6 5235.15 3362.36 5236.51 3368.42C5238.08 3374.47 5239.93 3380.53 5242.08 3386.58C5244.42 3392.64 5247.16 3398.11 5250.28 3402.99C5253.41 3407.68 5256.83 3411.58 5260.54 3414.71C5264.44 3417.83 5268.94 3419.39 5274.01 3419.39C5280.26 3419.39 5285.73 3417.73 5290.42 3414.41C5295.3 3411.09 5299.5 3406.8 5303.02 3401.52C5306.53 3396.25 5309.37 3390.29 5311.51 3383.65C5313.86 3377.01 5315.71 3370.37 5317.08 3363.73C5318.45 3356.89 5319.42 3350.35 5320.01 3344.1C5320.6 3337.85 5320.89 3332.38 5320.89 3327.7C5320.89 3323.01 5320.5 3318.61 5319.72 3314.51C5319.13 3310.21 5318.35 3306.02 5317.37 3301.91C5316.4 3297.81 5315.52 3293.81 5314.74 3289.9C5314.15 3285.8 5313.86 3281.7 5313.86 3277.6C5313.86 3273.89 5315.13 3271.25 5317.67 3269.69C5320.4 3268.12 5323.43 3267.34 5326.75 3267.34C5330.85 3267.34 5334.17 3268.61 5336.71 3271.15C5339.25 3273.5 5341.2 3276.52 5342.57 3280.23C5344.13 3283.95 5345.11 3288.24 5345.5 3293.12C5346.09 3297.81 5346.38 3302.5 5346.38 3307.19C5346.38 3311.87 5346.28 3316.37 5346.09 3320.66C5345.89 3324.77 5345.79 3328.09 5345.79 3330.62C5345.79 3337.27 5345.3 3344.79 5344.33 3353.18C5343.35 3361.58 5341.59 3370.27 5339.05 3379.26C5336.71 3388.05 5333.68 3396.74 5329.97 3405.33C5326.46 3413.93 5322.06 3421.64 5316.79 3428.48C5311.71 3435.12 5305.75 3440.49 5298.92 3444.59C5292.28 3448.69 5284.76 3450.74 5276.36 3450.74C5267.57 3450.74 5259.85 3448.69 5253.21 3444.59C5246.57 3440.29 5240.91 3434.73 5236.22 3427.89C5231.73 3420.86 5227.92 3412.95 5224.8 3404.16C5221.67 3395.37 5219.23 3386.58 5217.47 3377.79C5215.91 3369 5214.74 3360.51 5213.96 3352.3C5213.37 3343.91 5213.08 3336.68 5213.08 3330.62ZM5357.22 3302.5C5357.22 3301.91 5357.32 3301.43 5357.51 3301.04C5357.51 3300.64 5357.61 3300.16 5357.8 3299.57C5358.59 3298.59 5359.76 3297.32 5361.32 3295.76C5362.88 3294.2 5363.86 3293.42 5364.25 3293.42H5423.14C5423.14 3291.27 5422.84 3287.85 5422.26 3283.16C5421.67 3278.48 5421.09 3273.3 5420.5 3267.64C5420.11 3261.97 5420.01 3256.11 5420.21 3250.06C5420.4 3243.81 5421.18 3238.24 5422.55 3233.36C5424.11 3228.28 5426.46 3224.18 5429.58 3221.05C5432.9 3217.73 5437.49 3216.07 5443.35 3216.07C5443.35 3235.8 5444.72 3251.62 5447.45 3263.54C5450.19 3275.45 5453.8 3284.63 5458.29 3291.07C5462.98 3297.52 5468.25 3301.72 5474.11 3303.67C5479.97 3305.62 5485.93 3306.5 5491.98 3306.31C5498.23 3305.92 5504.29 3304.94 5510.15 3303.38C5516.01 3301.82 5521.18 3300.74 5525.67 3300.16C5530.36 3299.57 5534.07 3300.06 5536.81 3301.62C5539.54 3302.99 5540.91 3306.41 5540.91 3311.87C5540.91 3315.98 5539.93 3318.91 5537.98 3320.66C5536.22 3322.42 5532.71 3323.79 5527.43 3324.77C5525.87 3324.96 5523.23 3325.35 5519.52 3325.94C5516.01 3326.33 5512 3326.72 5507.51 3327.11C5503.02 3327.5 5498.23 3327.99 5493.16 3328.57C5488.08 3328.96 5483.29 3329.36 5478.8 3329.75C5474.31 3330.14 5470.21 3330.43 5466.5 3330.62C5462.78 3330.62 5460.05 3330.62 5458.29 3330.62C5458.29 3331.6 5458.19 3333.26 5458 3335.61C5457.8 3337.95 5457.71 3339.51 5457.71 3340.29C5457.71 3348.89 5459.07 3357.29 5461.81 3365.49C5464.54 3373.5 5467.47 3381.5 5470.6 3389.51C5473.92 3397.52 5476.94 3405.53 5479.68 3413.54C5482.41 3421.54 5483.78 3429.84 5483.78 3438.44C5483.78 3440 5483.59 3441.66 5483.19 3443.42C5483 3444.98 5482.41 3446.45 5481.44 3447.81C5480.66 3448.98 5479.39 3449.86 5477.63 3450.45C5476.07 3451.23 5473.82 3451.13 5470.89 3450.16C5463.47 3448.2 5457.9 3444 5454.19 3437.56C5450.67 3431.11 5448.04 3423.5 5446.28 3414.71C5444.52 3405.72 5443.35 3396.25 5442.76 3386.29C5442.18 3376.33 5441.2 3367.05 5439.84 3358.46C5438.66 3349.67 5436.71 3342.25 5433.98 3336.19C5431.24 3329.94 5426.85 3326.13 5420.79 3324.77L5364.25 3311.87C5363.47 3311.87 5362.3 3311.09 5360.73 3309.53C5359.17 3307.77 5358.19 3306.5 5357.8 3305.72C5357.61 3305.33 5357.51 3304.84 5357.51 3304.26C5357.32 3303.87 5357.22 3303.28 5357.22 3302.5ZM5680.66 3302.5C5680.66 3301.91 5680.75 3301.43 5680.95 3301.04C5680.95 3300.64 5681.05 3300.16 5681.24 3299.57C5682.02 3298.59 5683.19 3297.32 5684.76 3295.76C5686.32 3294.2 5687.3 3293.42 5687.69 3293.42H5746.57C5746.57 3291.27 5746.28 3287.85 5745.69 3283.16C5745.11 3278.48 5744.52 3273.3 5743.94 3267.64C5743.55 3261.97 5743.45 3256.11 5743.64 3250.06C5743.84 3243.81 5744.62 3238.24 5745.99 3233.36C5747.55 3228.28 5749.89 3224.18 5753.02 3221.05C5756.34 3217.73 5760.93 3216.07 5766.79 3216.07C5766.79 3235.8 5768.16 3251.62 5770.89 3263.54C5773.62 3275.45 5777.24 3284.63 5781.73 3291.07C5786.42 3297.52 5791.69 3301.72 5797.55 3303.67C5803.41 3305.62 5809.37 3306.5 5815.42 3306.31C5821.67 3305.92 5827.73 3304.94 5833.59 3303.38C5839.44 3301.82 5844.62 3300.74 5849.11 3300.16C5853.8 3299.57 5857.51 3300.06 5860.25 3301.62C5862.98 3302.99 5864.35 3306.41 5864.35 3311.87C5864.35 3315.98 5863.37 3318.91 5861.42 3320.66C5859.66 3322.42 5856.14 3323.79 5850.87 3324.77C5849.31 3324.96 5846.67 3325.35 5842.96 3325.94C5839.44 3326.33 5835.44 3326.72 5830.95 3327.11C5826.46 3327.5 5821.67 3327.99 5816.59 3328.57C5811.51 3328.96 5806.73 3329.36 5802.24 3329.75C5797.75 3330.14 5793.64 3330.43 5789.93 3330.62C5786.22 3330.62 5783.49 3330.62 5781.73 3330.62C5781.73 3331.6 5781.63 3333.26 5781.44 3335.61C5781.24 3337.95 5781.14 3339.51 5781.14 3340.29C5781.14 3348.89 5782.51 3357.29 5785.25 3365.49C5787.98 3373.5 5790.91 3381.5 5794.03 3389.51C5797.35 3397.52 5800.38 3405.53 5803.12 3413.54C5805.85 3421.54 5807.22 3429.84 5807.22 3438.44C5807.22 3440 5807.02 3441.66 5806.63 3443.42C5806.44 3444.98 5805.85 3446.45 5804.87 3447.81C5804.09 3448.98 5802.82 3449.86 5801.07 3450.45C5799.5 3451.23 5797.26 3451.13 5794.33 3450.16C5786.91 3448.2 5781.34 3444 5777.63 3437.56C5774.11 3431.11 5771.48 3423.5 5769.72 3414.71C5767.96 3405.72 5766.79 3396.25 5766.2 3386.29C5765.62 3376.33 5764.64 3367.05 5763.27 3358.46C5762.1 3349.67 5760.15 3342.25 5757.41 3336.19C5754.68 3329.94 5750.28 3326.13 5744.23 3324.77L5687.69 3311.87C5686.91 3311.87 5685.73 3311.09 5684.17 3309.53C5682.61 3307.77 5681.63 3306.5 5681.24 3305.72C5681.05 3305.33 5680.95 3304.84 5680.95 3304.26C5680.75 3303.87 5680.66 3303.28 5680.66 3302.5ZM5883.98 3259.73C5883.98 3257.58 5884.17 3254.94 5884.56 3251.82C5885.15 3248.5 5886.03 3245.37 5887.2 3242.44C5888.57 3239.51 5890.23 3237.07 5892.18 3235.12C5894.13 3232.97 5896.67 3231.89 5899.8 3231.89C5899.99 3231.89 5900.48 3231.99 5901.26 3232.19C5902.04 3232.38 5902.53 3232.48 5902.73 3232.48C5906.05 3244.59 5908 3256.6 5908.59 3268.52C5909.17 3280.43 5908.98 3292.05 5908 3303.38C5907.02 3314.51 5905.56 3325.35 5903.6 3335.9C5901.65 3346.25 5899.99 3355.82 5898.62 3364.61C5897.45 3373.4 5896.67 3381.31 5896.28 3388.34C5896.09 3395.37 5897.16 3401.33 5899.5 3406.21C5899.11 3403.09 5898.82 3399.37 5898.62 3395.08C5898.62 3390.59 5899.01 3386 5899.8 3381.31C5900.77 3376.62 5902.24 3371.93 5904.19 3367.25C5906.34 3362.56 5909.37 3358.36 5913.27 3354.65C5917.18 3350.94 5922.16 3348.01 5928.21 3345.86C5934.46 3343.71 5942.18 3342.64 5951.36 3342.64C5960.93 3342.64 5969.13 3344.3 5975.97 3347.62C5983 3350.94 5988.76 3355.53 5993.25 3361.39C5997.75 3367.05 6001.07 3373.79 6003.21 3381.6C6005.56 3389.22 6006.73 3397.42 6006.73 3406.21C6006.73 3410.31 6006.63 3415 6006.44 3420.27C6006.44 3425.35 6005.75 3430.14 6004.39 3434.63C6003.21 3438.93 6000.97 3442.64 5997.65 3445.76C5994.52 3448.69 5989.84 3450.16 5983.59 3450.16C5983.59 3447.03 5983.78 3442.83 5984.17 3437.56C5984.56 3432.09 5984.76 3426.33 5984.76 3420.27C5984.95 3414.22 5984.76 3408.07 5984.17 3401.82C5983.78 3395.57 5982.51 3390 5980.36 3385.12C5978.21 3380.04 5975.19 3375.94 5971.28 3372.81C5967.57 3369.49 5962.39 3367.83 5955.75 3367.83C5953.41 3367.83 5950.48 3368.03 5946.96 3368.42C5943.64 3368.61 5940.23 3369.49 5936.71 3371.05C5933.19 3372.62 5929.78 3375.06 5926.46 3378.38C5923.14 3381.5 5920.5 3385.9 5918.55 3391.56C5916.59 3397.03 5915.42 3404.06 5915.03 3412.66C5914.84 3421.05 5915.91 3431.41 5918.25 3443.71C5916.89 3447.23 5915.13 3449.28 5912.98 3449.86C5911.03 3450.45 5908.49 3450.74 5905.36 3450.74C5899.11 3450.74 5893.94 3448.59 5889.84 3444.3C5885.93 3439.8 5882.9 3433.85 5880.75 3426.43C5878.6 3419 5877.14 3410.41 5876.36 3400.64C5875.77 3390.88 5875.58 3380.72 5875.77 3370.18C5875.97 3359.43 5876.46 3348.59 5877.24 3337.66C5878.21 3326.52 5879.09 3316.07 5879.87 3306.31C5880.85 3296.35 5881.73 3287.36 5882.51 3279.36C5883.49 3271.15 5883.98 3264.61 5883.98 3259.73ZM6018.45 3368.71C6018.45 3358.16 6019.72 3347.62 6022.26 3337.07C6024.8 3326.52 6028.8 3317.05 6034.27 3308.65C6039.93 3300.25 6047.16 3293.42 6055.95 3288.14C6064.93 3282.87 6075.77 3280.23 6088.47 3280.23C6095.69 3280.23 6102.04 3281.6 6107.51 3284.34C6112.98 3286.87 6117.57 3290.29 6121.28 3294.59C6124.99 3298.89 6127.73 3303.96 6129.48 3309.82C6131.44 3315.49 6132.41 3321.45 6132.41 3327.7C6132.41 3337.66 6130.07 3347.32 6125.38 3356.7C6120.89 3366.07 6114.74 3374.37 6106.92 3381.6C6099.31 3388.63 6090.52 3394 6080.56 3397.71C6070.6 3401.23 6060.44 3402.01 6050.09 3400.06C6050.28 3405.72 6052.14 3410.31 6055.66 3413.83C6059.37 3417.15 6063.76 3419.69 6068.84 3421.45C6073.92 3423.2 6079.19 3424.37 6084.66 3424.96C6090.13 3425.35 6095.01 3425.55 6099.31 3425.55C6103.8 3425.55 6108 3425.16 6111.91 3424.37C6115.81 3423.59 6119.72 3422.71 6123.62 3421.74C6127.53 3420.76 6131.44 3419.88 6135.34 3419.1C6139.44 3418.32 6143.74 3417.93 6148.23 3417.93C6149.99 3417.93 6151.75 3418.03 6153.51 3418.22C6155.26 3418.42 6156.92 3418.91 6158.49 3419.69C6160.05 3420.27 6161.32 3421.35 6162.3 3422.91C6163.27 3424.28 6163.76 3426.04 6163.76 3428.18C6163.76 3431.89 6162.39 3435.02 6159.66 3437.56C6156.92 3439.9 6153.41 3441.95 6149.11 3443.71C6145.01 3445.47 6140.42 3446.84 6135.34 3447.81C6130.26 3448.59 6125.28 3449.28 6120.4 3449.86C6115.71 3450.25 6111.32 3450.45 6107.22 3450.45C6103.31 3450.64 6100.38 3450.74 6098.43 3450.74C6085.93 3450.74 6074.7 3448.79 6064.74 3444.88C6054.78 3440.78 6046.38 3435.21 6039.54 3428.18C6032.71 3420.96 6027.43 3412.36 6023.72 3402.4C6020.21 3392.25 6018.45 3381.02 6018.45 3368.71ZM6049.5 3349.67C6049.5 3356.5 6050.38 3361.48 6052.14 3364.61C6054.09 3367.73 6058.68 3369.3 6065.91 3369.3C6070.99 3369.3 6075.97 3368.42 6080.85 3366.66C6085.73 3364.71 6090.13 3362.07 6094.03 3358.75C6098.14 3355.43 6101.36 3351.52 6103.7 3347.03C6106.05 3342.54 6107.22 3337.66 6107.22 3332.38C6107.22 3329.45 6106.92 3326.43 6106.34 3323.3C6105.95 3320.18 6104.97 3317.34 6103.41 3314.8C6101.85 3312.07 6099.8 3309.92 6097.26 3308.36C6094.91 3306.6 6091.79 3305.72 6087.88 3305.72C6082.02 3305.72 6076.65 3307.09 6071.77 3309.82C6067.08 3312.36 6063.08 3315.78 6059.76 3320.08C6056.44 3324.18 6053.9 3328.87 6052.14 3334.14C6050.38 3339.22 6049.5 3344.39 6049.5 3349.67ZM6324.01 3284.34C6324.01 3278.67 6323.62 3273.2 6322.84 3267.93C6322.06 3262.46 6321.87 3257.68 6322.26 3253.57C6322.65 3249.28 6324.11 3245.86 6326.65 3243.32C6329.39 3240.78 6334.27 3239.51 6341.3 3239.51C6343.45 3244 6345.5 3250.84 6347.45 3260.02C6349.6 3269.2 6351.65 3279.75 6353.6 3291.66C6355.56 3303.57 6357.41 3316.56 6359.17 3330.62C6360.93 3344.49 6362.49 3358.46 6363.86 3372.52C6365.42 3386.58 6366.69 3400.45 6367.67 3414.12C6368.84 3427.6 6369.72 3439.9 6370.3 3451.04C6363.86 3455.33 6358.68 3455.62 6354.78 3451.91C6350.87 3448.2 6347.65 3441.95 6345.11 3433.16C6342.57 3424.18 6340.62 3413.34 6339.25 3400.64C6337.88 3387.75 6336.51 3374.47 6335.15 3360.8C6333.98 3346.93 6332.51 3333.36 6330.75 3320.08C6329 3306.6 6326.75 3294.69 6324.01 3284.34ZM6397.84 3340.29C6397.84 3339.12 6397.84 3337.27 6397.84 3334.73C6398.04 3331.99 6398.14 3329.16 6398.14 3326.23C6398.33 3323.3 6398.43 3320.47 6398.43 3317.73C6398.62 3315 6398.72 3313.05 6398.72 3311.87C6400.87 3308.75 6403.6 3306.21 6406.92 3304.26C6410.44 3302.3 6413.96 3300.74 6417.47 3299.57C6418.06 3310.12 6419.72 3321.35 6422.45 3333.26C6425.19 3345.18 6428.12 3357.19 6431.24 3369.3C6434.37 3381.21 6437.1 3393.03 6439.44 3404.75C6441.98 3416.46 6443.25 3427.4 6443.25 3437.56C6443.25 3446.35 6438.76 3450.74 6429.78 3450.74C6424.31 3450.74 6419.72 3448.5 6416.01 3444C6412.3 3439.51 6409.27 3433.85 6406.92 3427.01C6404.78 3419.98 6403.02 3412.27 6401.65 3403.87C6400.28 3395.27 6399.31 3386.87 6398.72 3378.67C6398.33 3370.47 6398.04 3362.95 6397.84 3356.11C6397.84 3349.28 6397.84 3344 6397.84 3340.29ZM6401.94 3230.43C6405.66 3231.99 6408.78 3234.53 6411.32 3238.05C6413.86 3241.56 6414.93 3244.79 6414.54 3247.71C6414.35 3250.45 6412.2 3252.4 6408.1 3253.57C6404 3254.55 6397.16 3253.38 6387.59 3250.06C6387.59 3244.79 6388.57 3240.2 6390.52 3236.29C6392.67 3232.38 6396.48 3230.43 6401.94 3230.43ZM6452.92 3297.52C6454.29 3292.83 6455.85 3290.68 6457.61 3291.07C6459.56 3291.46 6461.91 3293.71 6464.64 3297.81C6467.37 3301.91 6470.4 3307.38 6473.72 3314.22C6477.24 3321.05 6480.95 3328.48 6484.85 3336.48C6488.76 3344.3 6492.96 3352.3 6497.45 3360.51C6502.14 3368.71 6506.92 3376.23 6511.81 3383.07C6516.89 3389.9 6522.16 3395.57 6527.63 3400.06C6533.29 3404.55 6539.05 3407.19 6544.91 3407.97L6568.35 3286.68C6568.74 3283.36 6570.21 3281.5 6572.75 3281.11C6575.48 3280.53 6578.12 3280.23 6580.66 3280.23C6589.44 3280.23 6593.84 3284.34 6593.84 3292.54C6593.84 3296.84 6593.45 3303.67 6592.67 3313.05C6591.89 3322.42 6590.62 3332.77 6588.86 3344.1C6587.1 3355.23 6584.95 3366.76 6582.41 3378.67C6579.87 3390.39 6576.85 3401.13 6573.33 3410.9C6569.82 3420.66 6565.71 3428.67 6561.03 3434.92C6556.53 3441.17 6551.55 3444.3 6546.09 3444.3C6538.08 3444.3 6530.17 3441.66 6522.35 3436.39C6514.54 3430.92 6507.12 3423.89 6500.09 3415.29C6493.25 3406.5 6486.91 3396.74 6481.05 3386C6475.38 3375.25 6470.4 3364.51 6466.1 3353.77C6462 3342.83 6458.78 3332.38 6456.44 3322.42C6454.09 3312.46 6452.92 3304.16 6452.92 3297.52ZM6611.42 3368.71C6611.42 3358.16 6612.69 3347.62 6615.23 3337.07C6617.76 3326.52 6621.77 3317.05 6627.24 3308.65C6632.9 3300.25 6640.13 3293.42 6648.92 3288.14C6657.9 3282.87 6668.74 3280.23 6681.44 3280.23C6688.66 3280.23 6695.01 3281.6 6700.48 3284.34C6705.95 3286.87 6710.54 3290.29 6714.25 3294.59C6717.96 3298.89 6720.69 3303.96 6722.45 3309.82C6724.41 3315.49 6725.38 3321.45 6725.38 3327.7C6725.38 3337.66 6723.04 3347.32 6718.35 3356.7C6713.86 3366.07 6707.71 3374.37 6699.89 3381.6C6692.28 3388.63 6683.49 3394 6673.53 3397.71C6663.57 3401.23 6653.41 3402.01 6643.06 3400.06C6643.25 3405.72 6645.11 3410.31 6648.62 3413.83C6652.34 3417.15 6656.73 3419.69 6661.81 3421.45C6666.89 3423.2 6672.16 3424.37 6677.63 3424.96C6683.1 3425.35 6687.98 3425.55 6692.28 3425.55C6696.77 3425.55 6700.97 3425.16 6704.87 3424.37C6708.78 3423.59 6712.69 3422.71 6716.59 3421.74C6720.5 3420.76 6724.41 3419.88 6728.31 3419.1C6732.41 3418.32 6736.71 3417.93 6741.2 3417.93C6742.96 3417.93 6744.72 3418.03 6746.48 3418.22C6748.23 3418.42 6749.89 3418.91 6751.46 3419.69C6753.02 3420.27 6754.29 3421.35 6755.26 3422.91C6756.24 3424.28 6756.73 3426.04 6756.73 3428.18C6756.73 3431.89 6755.36 3435.02 6752.63 3437.56C6749.89 3439.9 6746.38 3441.95 6742.08 3443.71C6737.98 3445.47 6733.39 3446.84 6728.31 3447.81C6723.23 3448.59 6718.25 3449.28 6713.37 3449.86C6708.68 3450.25 6704.29 3450.45 6700.19 3450.45C6696.28 3450.64 6693.35 3450.74 6691.4 3450.74C6678.9 3450.74 6667.67 3448.79 6657.71 3444.88C6647.75 3440.78 6639.35 3435.21 6632.51 3428.18C6625.67 3420.96 6620.4 3412.36 6616.69 3402.4C6613.17 3392.25 6611.42 3381.02 6611.42 3368.71ZM6642.47 3349.67C6642.47 3356.5 6643.35 3361.48 6645.11 3364.61C6647.06 3367.73 6651.65 3369.3 6658.88 3369.3C6663.96 3369.3 6668.94 3368.42 6673.82 3366.66C6678.7 3364.71 6683.1 3362.07 6687 3358.75C6691.1 3355.43 6694.33 3351.52 6696.67 3347.03C6699.01 3342.54 6700.19 3337.66 6700.19 3332.38C6700.19 3329.45 6699.89 3326.43 6699.31 3323.3C6698.92 3320.18 6697.94 3317.34 6696.38 3314.8C6694.82 3312.07 6692.76 3309.92 6690.23 3308.36C6687.88 3306.6 6684.76 3305.72 6680.85 3305.72C6674.99 3305.72 6669.62 3307.09 6664.74 3309.82C6660.05 3312.36 6656.05 3315.78 6652.73 3320.08C6649.41 3324.18 6646.87 3328.87 6645.11 3334.14C6643.35 3339.22 6642.47 3344.39 6642.47 3349.67ZM6908.19 3297.52C6909.56 3292.83 6911.12 3290.68 6912.88 3291.07C6914.84 3291.46 6917.18 3293.71 6919.91 3297.81C6922.65 3301.91 6925.67 3307.38 6929 3314.22C6932.51 3321.05 6936.22 3328.48 6940.13 3336.48C6944.03 3344.3 6948.23 3352.3 6952.73 3360.51C6957.41 3368.71 6962.2 3376.23 6967.08 3383.07C6972.16 3389.9 6977.43 3395.57 6982.9 3400.06C6988.57 3404.55 6994.33 3407.19 7000.19 3407.97L7023.62 3286.68C7024.01 3283.36 7025.48 3281.5 7028.02 3281.11C7030.75 3280.53 7033.39 3280.23 7035.93 3280.23C7044.72 3280.23 7049.11 3284.34 7049.11 3292.54C7049.11 3296.84 7048.72 3303.67 7047.94 3313.05C7047.16 3322.42 7045.89 3332.77 7044.13 3344.1C7042.37 3355.23 7040.23 3366.76 7037.69 3378.67C7035.15 3390.39 7032.12 3401.13 7028.6 3410.9C7025.09 3420.66 7020.99 3428.67 7016.3 3434.92C7011.81 3441.17 7006.83 3444.3 7001.36 3444.3C6993.35 3444.3 6985.44 3441.66 6977.63 3436.39C6969.82 3430.92 6962.39 3423.89 6955.36 3415.29C6948.53 3406.5 6942.18 3396.74 6936.32 3386C6930.66 3375.25 6925.67 3364.51 6921.38 3353.77C6917.28 3342.83 6914.05 3332.38 6911.71 3322.42C6909.37 3312.46 6908.19 3304.16 6908.19 3297.52ZM7066.69 3368.71C7066.69 3358.16 7067.96 3347.62 7070.5 3337.07C7073.04 3326.52 7077.04 3317.05 7082.51 3308.65C7088.17 3300.25 7095.4 3293.42 7104.19 3288.14C7113.17 3282.87 7124.01 3280.23 7136.71 3280.23C7143.94 3280.23 7150.28 3281.6 7155.75 3284.34C7161.22 3286.87 7165.81 3290.29 7169.52 3294.59C7173.23 3298.89 7175.97 3303.96 7177.73 3309.82C7179.68 3315.49 7180.66 3321.45 7180.66 3327.7C7180.66 3337.66 7178.31 3347.32 7173.62 3356.7C7169.13 3366.07 7162.98 3374.37 7155.17 3381.6C7147.55 3388.63 7138.76 3394 7128.8 3397.71C7118.84 3401.23 7108.68 3402.01 7098.33 3400.06C7098.53 3405.72 7100.38 3410.31 7103.9 3413.83C7107.61 3417.15 7112 3419.69 7117.08 3421.45C7122.16 3423.2 7127.43 3424.37 7132.9 3424.96C7138.37 3425.35 7143.25 3425.55 7147.55 3425.55C7152.04 3425.55 7156.24 3425.16 7160.15 3424.37C7164.05 3423.59 7167.96 3422.71 7171.87 3421.74C7175.77 3420.76 7179.68 3419.88 7183.59 3419.1C7187.69 3418.32 7191.98 3417.93 7196.48 3417.93C7198.23 3417.93 7199.99 3418.03 7201.75 3418.22C7203.51 3418.42 7205.17 3418.91 7206.73 3419.69C7208.29 3420.27 7209.56 3421.35 7210.54 3422.91C7211.51 3424.28 7212 3426.04 7212 3428.18C7212 3431.89 7210.64 3435.02 7207.9 3437.56C7205.17 3439.9 7201.65 3441.95 7197.35 3443.71C7193.25 3445.47 7188.66 3446.84 7183.59 3447.81C7178.51 3448.59 7173.53 3449.28 7168.64 3449.86C7163.96 3450.25 7159.56 3450.45 7155.46 3450.45C7151.55 3450.64 7148.62 3450.74 7146.67 3450.74C7134.17 3450.74 7122.94 3448.79 7112.98 3444.88C7103.02 3440.78 7094.62 3435.21 7087.78 3428.18C7080.95 3420.96 7075.67 3412.36 7071.96 3402.4C7068.45 3392.25 7066.69 3381.02 7066.69 3368.71ZM7097.75 3349.67C7097.75 3356.5 7098.62 3361.48 7100.38 3364.61C7102.34 3367.73 7106.92 3369.3 7114.15 3369.3C7119.23 3369.3 7124.21 3368.42 7129.09 3366.66C7133.98 3364.71 7138.37 3362.07 7142.28 3358.75C7146.38 3355.43 7149.6 3351.52 7151.94 3347.03C7154.29 3342.54 7155.46 3337.66 7155.46 3332.38C7155.46 3329.45 7155.17 3326.43 7154.58 3323.3C7154.19 3320.18 7153.21 3317.34 7151.65 3314.8C7150.09 3312.07 7148.04 3309.92 7145.5 3308.36C7143.16 3306.6 7140.03 3305.72 7136.12 3305.72C7130.26 3305.72 7124.89 3307.09 7120.01 3309.82C7115.32 3312.36 7111.32 3315.78 7108 3320.08C7104.68 3324.18 7102.14 3328.87 7100.38 3334.14C7098.62 3339.22 7097.75 3344.39 7097.75 3349.67ZM7230.17 3327.11C7230.17 3325.35 7230.26 3323.59 7230.46 3321.84C7230.66 3319.88 7231.05 3318.22 7231.63 3316.86C7232.22 3315.29 7233.1 3314.02 7234.27 3313.05C7235.64 3312.07 7237.49 3311.58 7239.84 3311.58C7241.79 3311.58 7243.94 3313.14 7246.28 3316.27C7248.82 3319.2 7251.36 3323.01 7253.9 3327.7C7256.44 3332.19 7258.88 3337.17 7261.22 3342.64C7263.76 3348.11 7265.91 3353.18 7267.67 3357.87C7269.62 3362.36 7271.18 3366.27 7272.35 3369.59C7273.53 3372.91 7274.21 3374.67 7274.41 3374.86C7276.94 3368.03 7279.78 3360.61 7282.9 3352.6C7286.03 3344.59 7289.84 3337.17 7294.33 3330.33C7299.01 3323.3 7304.48 3317.44 7310.73 3312.75C7317.18 3308.07 7324.99 3305.72 7334.17 3305.72C7338.86 3305.72 7343.25 3306.5 7347.35 3308.07C7351.65 3309.43 7355.36 3311.58 7358.49 3314.51C7361.81 3317.25 7364.44 3320.57 7366.4 3324.47C7368.35 3328.38 7369.33 3332.87 7369.33 3337.95C7369.33 3342.25 7367.57 3345.27 7364.05 3347.03C7360.73 3348.79 7356.92 3349.67 7352.63 3349.67H7349.7L7337.1 3337.07C7336.71 3337.07 7336.42 3336.97 7336.22 3336.78C7335.83 3336.78 7335.44 3336.78 7335.05 3336.78C7334.85 3336.58 7334.56 3336.48 7334.17 3336.48C7327.34 3336.48 7321.96 3338.44 7318.06 3342.34C7314.35 3346.05 7311.51 3350.74 7309.56 3356.41C7307.61 3361.87 7306.34 3367.73 7305.75 3373.98C7305.36 3380.04 7305.17 3385.61 7305.17 3390.68C7305.17 3394.59 7305.56 3398.59 7306.34 3402.7C7307.12 3406.6 7308 3410.51 7308.98 3414.41C7309.95 3418.12 7310.83 3422.03 7311.61 3426.13C7312.39 3430.04 7312.78 3434.14 7312.78 3438.44C7312.78 3446.64 7308.39 3450.74 7299.6 3450.74C7294.72 3450.74 7289.64 3448.2 7284.37 3443.12C7279.09 3437.85 7273.82 3431.21 7268.55 3423.2C7263.47 3415.2 7258.59 3406.41 7253.9 3396.84C7249.21 3387.07 7245.11 3377.6 7241.59 3368.42C7238.08 3359.24 7235.25 3350.94 7233.1 3343.52C7231.14 3336.09 7230.17 3330.62 7230.17 3327.11ZM7436.12 3436.97C7439.25 3434.82 7442.96 3432.09 7447.26 3428.77C7451.75 3425.25 7456.24 3421.54 7460.73 3417.64C7465.23 3413.73 7469.42 3409.63 7473.33 3405.33C7477.24 3401.04 7480.26 3396.93 7482.41 3393.03C7484.76 3388.93 7485.93 3385.12 7485.93 3381.6C7485.93 3378.09 7484.17 3375.16 7480.66 3372.81C7474.41 3372.81 7467.57 3373.11 7460.15 3373.69C7452.73 3374.08 7445.3 3374.28 7437.88 3374.28C7430.46 3374.08 7423.23 3373.4 7416.2 3372.23C7409.37 3371.05 7403.21 3368.91 7397.75 3365.78C7392.28 3362.66 7387.88 3358.26 7384.56 3352.6C7381.44 3346.74 7379.87 3339.32 7379.87 3330.33C7379.87 3319.79 7381.83 3310.31 7385.73 3301.91C7389.84 3293.32 7395.21 3285.8 7401.85 3279.36C7408.49 3272.71 7415.91 3266.95 7424.11 3262.07C7432.51 3256.99 7440.91 3252.7 7449.31 3249.18C7454.39 3250.55 7459.07 3252.99 7463.37 3256.5C7467.67 3260.02 7471.38 3263.93 7474.5 3268.22C7473.14 3272.52 7470.4 3275.84 7466.3 3278.18C7462.39 3280.53 7457.8 3282.58 7452.53 3284.34C7447.45 3286.09 7442.08 3287.95 7436.42 3289.9C7430.75 3291.86 7425.58 3294.49 7420.89 3297.81C7416.4 3300.94 7412.59 3305.14 7409.46 3310.41C7406.34 3315.49 7404.78 3322.23 7404.78 3330.62C7404.78 3336.87 7406.34 3341.46 7409.46 3344.39C7412.59 3347.32 7416.69 3349.37 7421.77 3350.55C7426.85 3351.52 7432.61 3351.91 7439.05 3351.72C7445.5 3351.33 7452.04 3350.84 7458.68 3350.25C7465.52 3349.67 7472.16 3349.37 7478.6 3349.37C7485.05 3349.18 7490.81 3349.96 7495.89 3351.72C7500.97 3353.28 7504.97 3355.92 7507.9 3359.63C7511.03 3363.34 7512.59 3368.81 7512.59 3376.04C7512.59 3379.16 7511.51 3383.16 7509.37 3388.05C7507.41 3392.93 7504.68 3398.2 7501.16 3403.87C7497.84 3409.34 7493.84 3414.8 7489.15 3420.27C7484.66 3425.74 7479.87 3430.72 7474.8 3435.21C7469.91 3439.51 7464.93 3443.12 7459.85 3446.05C7454.97 3448.79 7450.38 3450.16 7446.09 3450.16C7441.98 3450.16 7439.25 3448.69 7437.88 3445.76C7436.71 3442.83 7436.12 3439.9 7436.12 3436.97ZM7536.61 3340.29C7536.61 3339.12 7536.61 3337.27 7536.61 3334.73C7536.81 3331.99 7536.91 3329.16 7536.91 3326.23C7537.1 3323.3 7537.2 3320.47 7537.2 3317.73C7537.39 3315 7537.49 3313.05 7537.49 3311.87C7539.64 3308.75 7542.37 3306.21 7545.69 3304.26C7549.21 3302.3 7552.73 3300.74 7556.24 3299.57C7556.83 3310.12 7558.49 3321.35 7561.22 3333.26C7563.96 3345.18 7566.89 3357.19 7570.01 3369.3C7573.14 3381.21 7575.87 3393.03 7578.21 3404.75C7580.75 3416.46 7582.02 3427.4 7582.02 3437.56C7582.02 3446.35 7577.53 3450.74 7568.55 3450.74C7563.08 3450.74 7558.49 3448.5 7554.78 3444C7551.07 3439.51 7548.04 3433.85 7545.69 3427.01C7543.55 3419.98 7541.79 3412.27 7540.42 3403.87C7539.05 3395.27 7538.08 3386.87 7537.49 3378.67C7537.1 3370.47 7536.81 3362.95 7536.61 3356.11C7536.61 3349.28 7536.61 3344 7536.61 3340.29ZM7540.71 3230.43C7544.42 3231.99 7547.55 3234.53 7550.09 3238.05C7552.63 3241.56 7553.7 3244.79 7553.31 3247.71C7553.12 3250.45 7550.97 3252.4 7546.87 3253.57C7542.76 3254.55 7535.93 3253.38 7526.36 3250.06C7526.36 3244.79 7527.34 3240.2 7529.29 3236.29C7531.44 3232.38 7535.25 3230.43 7540.71 3230.43ZM7593.45 3390.68C7593.45 3378.57 7596.28 3367.34 7601.94 3356.99C7607.61 3346.45 7615.03 3337.46 7624.21 3330.04C7633.58 3322.42 7644.03 3316.46 7655.56 3312.17C7667.28 3307.87 7679.09 3305.72 7691.01 3305.72C7697.65 3305.72 7703.51 3307.87 7708.58 3312.17C7713.86 3316.46 7718.25 3321.74 7721.77 3327.99C7725.28 3334.04 7727.92 3340.49 7729.68 3347.32C7731.63 3354.16 7732.61 3360.12 7732.61 3365.2C7732.61 3376.13 7729.97 3386.78 7724.7 3397.13C7719.42 3407.29 7712.59 3416.37 7704.19 3424.37C7695.79 3432.19 7686.32 3438.54 7675.77 3443.42C7665.23 3448.3 7654.68 3450.74 7644.13 3450.74C7634.76 3450.74 7626.85 3449.18 7620.4 3446.05C7613.96 3442.73 7608.78 3438.44 7604.87 3433.16C7600.97 3427.7 7598.04 3421.35 7596.08 3414.12C7594.33 3406.7 7593.45 3398.89 7593.45 3390.68ZM7618.35 3393.61C7618.35 3398.69 7618.74 3403.18 7619.52 3407.09C7620.5 3410.8 7622.06 3414.02 7624.21 3416.76C7626.55 3419.49 7629.58 3421.64 7633.29 3423.2C7637 3424.57 7641.59 3425.25 7647.06 3425.25C7654.29 3425.25 7661.51 3423.3 7668.74 3419.39C7675.97 3415.29 7682.41 3410.21 7688.08 3404.16C7693.94 3397.91 7698.62 3391.07 7702.14 3383.65C7705.66 3376.23 7707.41 3369 7707.41 3361.97C7707.41 3358.85 7707.12 3355.43 7706.53 3351.72C7705.95 3348.01 7704.97 3344.59 7703.6 3341.46C7702.24 3338.34 7700.28 3335.7 7697.75 3333.55C7695.21 3331.41 7691.98 3330.33 7688.08 3330.33C7684.56 3330.33 7680.36 3331.5 7675.48 3333.85C7670.79 3336.19 7665.81 3339.22 7660.54 3342.93C7655.46 3346.64 7650.38 3350.84 7645.3 3355.53C7640.42 3360.21 7635.93 3364.9 7631.83 3369.59C7627.73 3374.28 7624.41 3378.77 7621.87 3383.07C7619.52 3387.36 7618.35 3390.88 7618.35 3393.61ZM7744.03 3351.43C7744.03 3346.35 7745.3 3342.73 7747.84 3340.59C7750.38 3338.24 7754.48 3337.07 7760.15 3337.07H7763.08C7763.66 3340.2 7764.35 3343.81 7765.13 3347.91C7765.91 3352.01 7767.08 3356.21 7768.64 3360.51C7770.21 3364.8 7772.06 3368.81 7774.21 3372.52C7776.36 3376.04 7779 3378.87 7782.12 3381.02C7782.32 3374.18 7783.98 3367.64 7787.1 3361.39C7790.42 3354.94 7794.42 3349.28 7799.11 3344.39C7804 3339.32 7809.27 3335.12 7814.93 3331.8C7820.79 3328.28 7826.55 3325.94 7832.22 3324.77H7838.66C7848.04 3324.77 7856.05 3326.91 7862.69 3331.21C7869.33 3335.31 7874.8 3340.78 7879.09 3347.62C7883.58 3354.26 7887 3361.87 7889.35 3370.47C7891.69 3379.06 7893.45 3387.85 7894.62 3396.84C7895.99 3405.62 7896.77 3414.22 7896.96 3422.62C7897.35 3430.82 7897.55 3437.85 7897.55 3443.71H7876.16C7874.99 3431.99 7873.53 3420.76 7871.77 3410.02C7871.18 3405.72 7870.4 3401.23 7869.42 3396.54C7868.45 3391.66 7867.37 3387.17 7866.2 3383.07C7865.03 3378.77 7863.76 3374.86 7862.39 3371.35C7861.03 3367.64 7859.46 3364.51 7857.71 3361.97C7856.92 3361.19 7855.85 3360.12 7854.48 3358.75C7853.31 3357.38 7852.04 3356.02 7850.67 3354.65C7849.31 3353.28 7848.04 3352.11 7846.87 3351.13C7845.69 3350.16 7845.01 3349.67 7844.82 3349.67C7838.96 3348.11 7833.88 3349.28 7829.58 3353.18C7825.28 3356.89 7821.48 3361.97 7818.16 3368.42C7814.83 3374.86 7812.1 3382.19 7809.95 3390.39C7808 3398.59 7806.34 3406.5 7804.97 3414.12C7803.6 3421.54 7802.63 3428.09 7802.04 3433.75C7801.46 3439.22 7801.07 3442.54 7800.87 3443.71C7795.99 3447.23 7791.4 3448.3 7787.1 3446.93C7782.8 3445.37 7778.7 3442.25 7774.8 3437.56C7771.08 3432.87 7767.67 3427.01 7764.54 3419.98C7761.61 3412.95 7758.88 3405.53 7756.34 3397.71C7753.8 3389.71 7751.46 3381.7 7749.31 3373.69C7747.35 3365.68 7745.6 3358.26 7744.03 3351.43Z" fill="white"/>
</svg>
