<svg width="120" height="60" viewBox="0 0 120 60" fill="none" xmlns="http://www.w3.org/2000/svg">
<path d="M40.0001 41.7528V18.7078H41.2501V22.3328C41.3977 22.1721 41.534 22.0014 41.6581 21.8218C42.7021 19.6558 44.9041 18.2888 47.3081 18.3158C50.1581 18.2308 52.4741 19.2858 53.8351 21.8218C54.7011 23.3973 55.1777 25.1571 55.225 26.9543C55.2723 28.7515 54.889 30.534 54.1071 32.1528C52.8391 34.9948 49.7071 36.4078 46.3541 35.8888C45.3106 35.8001 44.3059 35.4515 43.4318 34.8747C42.5577 34.2979 41.842 33.5113 41.3501 32.5868V41.7518L40.0001 41.7528ZM41.2501 26.8598L41.5301 29.5658C42.0241 32.6458 43.8451 34.4658 46.7041 34.8078C48.0467 35.0286 49.4243 34.7769 50.6021 34.0956C51.7799 33.4144 52.685 32.3457 53.1631 31.0718C54.2751 28.4218 54.1931 25.4218 52.9431 22.8338C52.4328 21.6919 51.5647 20.7471 50.47 20.1422C49.3753 19.5373 48.1134 19.3051 46.8751 19.4808C45.7127 19.5654 44.6055 20.0099 43.7073 20.7525C42.8091 21.4951 42.1645 22.4991 41.8631 23.6248C41.5968 24.6902 41.3922 25.77 41.2501 26.8588V26.8598ZM80.7481 29.9918C80.5585 31.6144 79.7861 33.1129 78.5744 34.2087C77.3628 35.3044 75.7945 35.9228 74.1611 35.9488C68.9191 36.2128 66.4591 32.7318 66.0681 28.7148C65.7962 26.5334 66.1503 24.3196 67.0891 22.3318C67.7424 20.9682 68.813 19.848 70.1456 19.1336C71.4782 18.4191 73.0037 18.1474 74.5011 18.3578C75.9245 18.4788 77.2739 19.0444 78.3582 19.9746C79.4425 20.9047 80.2069 22.1524 80.5431 23.5408C80.8094 24.8057 81.0053 26.0843 81.1301 27.3708H67.3631C67.1081 31.0128 69.0651 33.9408 71.8391 34.6468C75.2941 35.4968 78.2471 33.9998 79.3191 30.7148C79.5571 29.8718 79.9911 29.7528 80.7571 29.9918H80.7481ZM67.3531 26.2048H79.6671C79.5901 22.3248 77.1741 19.5048 73.8971 19.4728C70.1971 19.4128 67.5141 22.1198 67.3531 26.2048V26.2048ZM83.2931 30.0768H84.5001C84.5444 30.9661 84.8332 31.8258 85.3346 32.5615C85.836 33.2973 86.5306 33.8804 87.3421 34.2468C88.3609 34.7054 89.4701 34.9282 90.587 34.8988C91.7039 34.8693 92.7998 34.5884 93.7931 34.0768C94.3345 33.833 94.7881 33.4289 95.0925 32.919C95.3969 32.4092 95.5374 31.8181 95.4951 31.2258C95.5262 30.6546 95.3703 30.0888 95.0508 29.6142C94.7314 29.1396 94.266 28.7821 93.7251 28.5958C92.3971 28.1018 90.9851 27.8298 89.6321 27.3958C88.2242 26.995 86.8475 26.4917 85.5131 25.8898C83.3331 24.8258 83.1981 20.6818 85.6661 19.3698C86.9298 18.6568 88.3519 18.2715 89.8028 18.2491C91.2536 18.2267 92.687 18.568 93.9721 19.2418C95.5661 20.1218 96.4471 21.8988 96.1851 23.7018H95.1501C95.1501 23.6518 95.0561 23.6078 95.0561 23.5568C94.9281 20.2568 92.1541 19.2248 89.1761 19.5148C88.2761 19.6148 87.4231 19.8868 86.6231 20.2888C86.1421 20.5085 85.7414 20.8721 85.4762 21.3295C85.2111 21.7869 85.0947 22.3154 85.1431 22.8418C85.1441 23.3687 85.3082 23.8823 85.613 24.3121C85.9178 24.7418 86.3482 25.0666 86.8451 25.2418C88.1451 25.7188 89.5251 26.0248 90.8701 26.3988L94.1201 27.2488C94.8587 27.4913 95.5064 27.9523 95.9775 28.5708C96.4485 29.1893 96.7207 29.9363 96.7581 30.7128C97.0181 32.4578 96.1281 34.1728 94.5541 34.9678C91.7121 36.5758 87.0311 36.1508 84.9461 34.1178C83.8791 33.0448 83.2841 31.5878 83.2961 30.0758L83.2931 30.0768ZM112.073 23.7028H110.941C110.941 23.5498 110.881 23.4028 110.864 23.2858C110.846 22.4373 110.537 21.6208 109.988 20.9732C109.44 20.3256 108.685 19.8862 107.851 19.7288C106.278 19.2776 104.6 19.3585 103.077 19.9588C102.475 20.1311 101.945 20.4937 101.566 20.9923C101.187 21.4908 100.98 22.0987 100.975 22.7248C100.954 23.3397 101.145 23.9431 101.517 24.4331C101.889 24.9231 102.419 25.2695 103.017 25.4138L108.191 26.7418C108.751 26.876 109.302 27.0437 109.841 27.2438C111.491 27.8438 112.611 29.3758 112.661 31.1268C112.686 31.9839 112.451 32.8284 111.987 33.5495C111.523 34.2705 110.851 34.8343 110.061 35.1668C108.86 35.7123 107.559 36.001 106.24 36.0142C104.921 36.0275 103.614 35.7651 102.402 35.2438C101.406 34.8142 100.565 34.0896 99.9927 33.1676C99.4206 32.2456 99.1446 31.1704 99.2021 30.0868H100.308C100.724 32.0918 102.101 33.7618 103.99 34.5518C105.879 35.3418 108.036 35.1478 109.754 34.0358C110.27 33.7678 110.697 33.3576 110.987 32.854C111.277 32.3503 111.416 31.7742 111.388 31.1938C111.414 30.6222 111.252 30.0578 110.928 29.5863C110.604 29.1147 110.135 28.7617 109.592 28.5808C108.264 28.0868 106.852 27.8238 105.499 27.3808C104.083 26.9862 102.698 26.4885 101.355 25.8918C99.2271 24.8448 99.0571 20.7348 101.483 19.4238C102.762 18.6808 104.212 18.2817 105.692 18.2652C107.171 18.2487 108.629 18.6155 109.925 19.3298C110.666 19.7721 111.263 20.4203 111.642 21.1955C112.021 21.9706 112.167 22.8394 112.061 23.6958L112.073 23.7028ZM37.9431 35.5328C37.4975 35.7013 37.0056 35.7009 36.5603 35.5316C36.115 35.3623 35.7471 35.0358 35.5261 34.6138L31.1261 28.5288L30.4881 27.6788L25.3821 34.6228C25.1739 35.0267 24.8259 35.3409 24.403 35.5069C23.9802 35.6729 23.5113 35.6793 23.0841 35.5248L29.6621 26.6998L23.5421 18.7258C24.4501 18.3978 25.4621 18.7538 25.9671 19.5758L30.5271 25.7358L35.1141 19.5998C35.3237 19.2029 35.6719 18.8969 36.0925 18.74C36.5131 18.5831 36.9767 18.5862 37.3951 18.7488L35.0201 21.8998L31.8031 26.0868C31.7138 26.1666 31.6423 26.2643 31.5934 26.3735C31.5445 26.4828 31.5192 26.6011 31.5192 26.7208C31.5192 26.8405 31.5445 26.9589 31.5934 27.0682C31.6423 27.1774 31.7138 27.2751 31.8031 27.3548L37.9301 35.5328H37.9431ZM65.8731 18.6408V19.8408C65.0123 19.7844 64.1493 19.909 63.3398 20.2067C62.5302 20.5044 61.792 20.9686 61.1729 21.5692C60.5538 22.1698 60.0676 22.8936 59.7455 23.6938C59.4234 24.494 59.2727 25.3528 59.3031 26.2148C59.3031 29.0175 59.3031 31.8202 59.3031 34.6228V35.5758H58.0861V18.7158H59.2861V22.1708C60.7581 19.6508 63.0301 18.7158 65.8811 18.6478L65.8731 18.6408ZM7.33306 26.5898L7.86905 23.9428C9.34105 18.7088 15.3411 16.5308 19.4691 19.7728C21.8861 21.6708 22.4891 24.3598 22.3711 27.3898H8.75405C8.53405 32.8018 12.4391 36.0698 17.4341 34.4018C19.0801 33.8018 20.3191 32.4338 20.7271 30.7338C20.9911 29.8838 21.4271 29.7378 22.2251 29.9838C22.092 31.02 21.7257 32.0124 21.1538 32.8866C20.5818 33.7608 19.8191 34.4939 18.9231 35.0308C17.4426 35.8405 15.7441 36.1613 14.0703 35.9474C12.3966 35.7335 10.8333 34.9958 9.60405 33.8398C8.38805 32.4728 7.65405 30.7448 7.51105 28.9198C7.51105 28.6198 7.41105 28.3398 7.34105 28.0698C7.33439 27.5652 7.33105 27.0718 7.33105 26.5898H7.33306ZM8.77105 26.2238H21.0851C21.0081 22.3008 18.5321 19.5178 15.2301 19.4918C11.5541 19.4418 8.92405 22.1638 8.76205 26.2068L8.77105 26.2238Z" fill="white"/>
</svg>
