<svg width="207" height="124" viewBox="0 0 207 124" fill="none" xmlns="http://www.w3.org/2000/svg">
<path d="M48.9421 32.6318H87.9011V35.7135H52.5134V58.9068H85.7908V61.9885H52.5134V87.4525H88.3069V90.5341H48.9421V32.6318ZM91.3912 32.6318H95.5306L113.874 58.0959L132.623 32.6318L158.124 0.286621L116.228 60.772L137.817 90.5341H133.516L113.874 63.4482L94.1508 90.5341H89.9302L111.682 60.772L91.3912 32.6318ZM139.359 35.7135V32.6318H183.756V35.7135H163.303V90.5341H159.732V35.7135H139.359Z" fill="white"/>
<path d="M0.202881 32.6318H4.66693L66.2235 124.303L40.7851 90.5342L3.93645 37.011L3.77412 90.5342H0.202881V32.6318Z" fill="white"/>
<path d="M183.397 86.5227C184.135 86.5227 184.673 85.96 184.673 85.233C184.673 84.5059 184.135 83.9433 183.397 83.9433C182.667 83.9433 182.12 84.5059 182.12 85.233C182.12 85.96 182.667 86.5227 183.397 86.5227ZM186.906 83.1297C186.906 85.2762 188.461 86.6785 190.728 86.6785C193.142 86.6785 194.602 85.233 194.602 82.7228V73.8855H192.656V82.7142C192.656 84.1077 191.952 84.8521 190.71 84.8521C189.598 84.8521 188.843 84.1597 188.817 83.1297H186.906ZM197.147 83.0171C197.286 85.2503 199.153 86.6785 201.933 86.6785C204.903 86.6785 206.762 85.181 206.762 82.7921C206.762 80.9138 205.702 79.8751 203.131 79.2779L201.75 78.9403C200.117 78.5595 199.457 78.0488 199.457 77.1573C199.457 76.0321 200.482 75.2963 202.02 75.2963C203.479 75.2963 204.486 76.0147 204.669 77.1659H206.562C206.449 75.0626 204.591 73.5825 202.046 73.5825C199.309 73.5825 197.485 75.0626 197.485 77.2871C197.485 79.1221 198.519 80.2127 200.786 80.7407L202.402 81.1302C204.061 81.5197 204.79 82.091 204.79 83.0431C204.79 84.151 203.644 84.956 202.08 84.956C200.404 84.956 199.24 84.203 199.075 83.0171H197.147Z" fill="white"/>
</svg>
